<?xml version="1.0" encoding="UTF-8"?>
<svg version="1.1" xmlns="http://www.w3.org/2000/svg" width="180" height="180">
<path d="M0 0 C59.4 0 118.8 0 180 0 C180 59.4 180 118.8 180 180 C120.6 180 61.2 180 0 180 C0 120.6 0 61.2 0 0 Z " fill="#F07125" transform="translate(0,0)"/>
<path d="M0 0 C59.4 0 118.8 0 180 0 C180 59.4 180 118.8 180 180 C120.6 180 61.2 180 0 180 C0 120.6 0 61.2 0 0 Z M63 21 C61.97132812 21.42410156 60.94265625 21.84820313 59.8828125 22.28515625 C52.29831125 25.74932412 46.17500198 30.44536144 40 36 C39.27941406 36.62648438 38.55882813 37.25296875 37.81640625 37.8984375 C25.75511579 49.04278775 17.73401771 65.93823336 16.87890625 82.31982422 C16.07013369 103.7078147 20.25549874 122.76839239 35 139 C35.96292969 140.10021484 35.96292969 140.10021484 36.9453125 141.22265625 C47.70463644 152.79587739 63.51651706 162.25014746 79.61206055 163.14526367 C82.63731868 163.17001941 85.66213311 163.18565639 88.6875 163.1875 C89.72583984 163.19974609 90.76417969 163.21199219 91.83398438 163.22460938 C109.04662639 163.25698425 123.67375105 157.84747568 137 147 C138.051875 146.21625 139.10375 145.4325 140.1875 144.625 C150.37466486 135.11697947 156.93946165 123.23579328 161 110 C161.226875 109.27039063 161.45375 108.54078125 161.6875 107.7890625 C166.49901749 88.74347245 162.64773535 68.55463708 153.07617188 51.77880859 C150.46775888 47.46735281 147.39506911 43.70725937 144 40 C143.02160156 38.86691406 143.02160156 38.86691406 142.0234375 37.7109375 C131.22401972 25.94078554 115.38149549 17.89704893 99.35961914 16.82299805 C80.78363522 16.29028345 80.78363522 16.29028345 63 21 Z " fill="#F16F23" transform="translate(0,0)"/>
<path d="M0 0 C3.94684991 -0.07505712 7.89341427 -0.12902215 11.84082031 -0.16479492 C13.83152905 -0.18701479 15.82203968 -0.22516595 17.8125 -0.26367188 C25.44320981 -0.32148028 31.86981653 0.24440546 39 3 C39.78310547 3.28423828 40.56621094 3.56847656 41.37304688 3.86132812 C43.25683455 4.5524315 45.12987744 5.27273012 47 6 C47 6.66 47 7.32 47 8 C47.845625 8 48.69125 8 49.5625 8 C54.58959115 9.46242652 56.94673596 12.8869253 60 17 C60.495 17.99 60.495 17.99 61 19 C61.66 19 62.32 19 63 19 C64.5078125 20.4609375 64.5078125 20.4609375 66.125 22.375 C66.66382813 23.00148438 67.20265625 23.62796875 67.7578125 24.2734375 C69 26 69 26 69 28 C69.66 28.33 70.32 28.66 71 29 C74.31411786 33.95908147 75.49196648 38.09640219 75 44 C75.66 44 76.32 44 77 44 C78.14814997 46.29629994 78.30769809 48.07698086 78.5625 50.625 C78.64628906 51.44226563 78.73007813 52.25953125 78.81640625 53.1015625 C78.87699219 53.72804687 78.93757812 54.35453125 79 55 C79.99 55.33 80.98 55.66 82 56 C81.67 53.03 81.34 50.06 81 47 C80.34 47 79.68 47 79 47 C79.33 45.68 79.66 44.36 80 43 C82 44 82 44 82.6328125 45.7578125 C84.25371002 53.55355774 84.19032148 61.06993814 84 69 C83.67 69 83.34 69 83 69 C83 65.04 83 61.08 83 57 C82.01 57 81.02 57 80 57 C80 62.28 80 67.56 80 73 C80.66 73.33 81.32 73.66 82 74 C81.34 74 80.68 74 80 74 C79.814375 75.155 79.62875 76.31 79.4375 77.5 C78.3671539 82.39077851 76.50860471 86.81153239 74.5 91.375 C74.03678345 92.4278418 74.03678345 92.4278418 73.56420898 93.50195312 C72.21264268 96.51108704 70.83377219 99.24934171 69 102 C68.34 102 67.68 102 67 102 C66.34 103.65 65.68 105.3 65 107 C64.34 107 63.68 107 63 107 C63 105.68 63 104.36 63 103 C61.515 102.505 61.515 102.505 60 102 C60 104.31 60 106.62 60 109 C59.34 109 58.68 109 58 109 C56.4543243 104.36297289 56.94264372 99.87528349 57 95 C53.37 95 49.74 95 46 95 C46 74.54 46 54.08 46 33 C48.97 33 51.94 33 55 33 C55 29.04 55 25.08 55 21 C43.78 21 32.56 21 21 21 C21 24.96 21 28.92 21 33 C23.97 33 26.94 33 30 33 C30 39.93 30 46.86 30 54 C20.1 54 10.2 54 0 54 C0 47.07 0 40.14 0 33 C2.97 33 5.94 33 9 33 C9 29.04 9 25.08 9 21 C-2.22 21 -13.44 21 -25 21 C-25 24.96 -25 28.92 -25 33 C-22.03 33 -19.06 33 -16 33 C-16 53.46 -16 73.92 -16 95 C-18.97 95 -21.94 95 -25 95 C-24.67 99.29 -24.34 103.58 -24 108 C-10.14 108.495 -10.14 108.495 4 109 C4 109.33 4 109.66 4 110 C3.28980713 110.02505615 2.57961426 110.0501123 1.84790039 110.07592773 C-1.41403464 110.19298472 -4.67575722 110.31520746 -7.9375 110.4375 C-9.05447266 110.47681641 -10.17144531 110.51613281 -11.32226562 110.55664062 C-17.59583708 110.79580904 -23.77079389 111.21391779 -30 112 C-30.37125 111.278125 -30.7425 110.55625 -31.125 109.8125 C-32.91203636 106.81907049 -32.91203636 106.81907049 -36 104.625 C-39.57096017 101.50040985 -40.32848508 99.34593879 -42 95 C-42.66 94.67 -43.32 94.34 -44 94 C-50.3074685 81.24354929 -50.32398386 66.93353177 -51 53 C-50.01 52.505 -50.01 52.505 -49 52 C-48.87625 50.88625 -48.7525 49.7725 -48.625 48.625 C-48 45 -48 45 -45.9375 43.3125 C-45.298125 42.879375 -44.65875 42.44625 -44 42 C-44 40.68 -44 39.36 -44 38 C-43.34 38 -42.68 38 -42 38 C-41.87625 36.7625 -41.7525 35.525 -41.625 34.25 C-41.24253695 31.1237803 -40.69450477 28.71120763 -39 26 C-38.34 26 -37.68 26 -37 26 C-37 25.01 -37 24.02 -37 23 C-35.35 22.34 -33.7 21.68 -32 21 C-32 20.34 -32 19.68 -32 19 C-31.34 19 -30.68 19 -30 19 C-30 18.01 -30 17.02 -30 16 C-27.81728174 13.2428822 -25.02292548 11.72738599 -22 10 C-21.071875 9.443125 -20.14375 8.88625 -19.1875 8.3125 C-18.465625 7.879375 -17.74375 7.44625 -17 7 C-17.495 5.515 -17.495 5.515 -18 4 C-14.37 4 -10.74 4 -7 4 C-7 3.34 -7 2.68 -7 2 C-4.69 2 -2.38 2 0 2 C0 1.34 0 0.68 0 0 Z " fill="#F06F23" transform="translate(75,26)"/>
<path d="M0 0 C11.22 0 22.44 0 34 0 C34 3.96 34 7.92 34 12 C31.03 12 28.06 12 25 12 C25 18.93 25 25.86 25 33 C34.9 33 44.8 33 55 33 C55 26.07 55 19.14 55 12 C52.03 12 49.06 12 46 12 C46 8.04 46 4.08 46 0 C57.22 0 68.44 0 80 0 C80 3.96 80 7.92 80 12 C77.03 12 74.06 12 71 12 C71 32.46 71 52.92 71 74 C73.97 74 76.94 74 80 74 C80 77.96 80 81.92 80 86 C68.78 86 57.56 86 46 86 C46 82.04 46 78.08 46 74 C48.97 74 51.94 74 55 74 C55 65.09 55 56.18 55 47 C45.1 47 35.2 47 25 47 C25 55.91 25 64.82 25 74 C27.97 74 30.94 74 34 74 C34 77.96 34 81.92 34 86 C22.78 86 11.56 86 0 86 C0 82.04 0 78.08 0 74 C2.97 74 5.94 74 9 74 C9 53.54 9 33.08 9 12 C6.03 12 3.06 12 0 12 C0 8.04 0 4.08 0 0 Z " fill="#FBFCF9" transform="translate(50,47)"/>
<path d="M0 0 C1.03648682 -0.0100708 2.07297363 -0.0201416 3.14086914 -0.03051758 C13.88558218 0.08934986 23.82833137 2.51225052 33.375 7.4375 C34.29925781 7.89640625 35.22351563 8.3553125 36.17578125 8.828125 C53.40576522 18.03532785 65.48717251 34.20438349 71.4140625 52.67578125 C76.43575493 72.6452217 74.02097669 93.51458473 63.70703125 111.31640625 C53.03338814 128.63456891 37.98453417 139.77352638 18.375 145.4375 C-1.41355124 149.25041597 -21.30738916 146.86660361 -38.625 136.4375 C-42.16066042 133.97451417 -45.41224095 131.3062239 -48.625 128.4375 C-49.39714844 127.75945312 -50.16929688 127.08140625 -50.96484375 126.3828125 C-63.64130974 114.55144424 -72.26245862 96.91663054 -72.92578125 79.45703125 C-73.16325222 58.66051101 -68.94933885 40.18478641 -54.625 24.4375 C-53.70267578 23.41269531 -53.70267578 23.41269531 -52.76171875 22.3671875 C-38.4338933 7.26410897 -20.56328508 0.12904239 0 0 Z M-52.0703125 27.19140625 C-65.85459737 44.73716546 -70.14330743 63.4213217 -68.38671875 85.421875 C-66.64673495 97.30297647 -61.03563395 108.12670349 -53.625 117.4375 C-52.75101563 118.57445312 -52.75101563 118.57445312 -51.859375 119.734375 C-41.79967237 131.99199585 -27.19723819 139.77043158 -11.625 142.4375 C1.3642055 143.33961457 14.19749868 143.44983185 26.375 138.4375 C27.25800781 138.07527344 28.14101562 137.71304688 29.05078125 137.33984375 C46.68103378 129.25131421 57.93440537 115.9269169 65.375 98.4375 C65.83132812 97.40109375 66.28765625 96.3646875 66.7578125 95.296875 C73.08425656 78.3968636 70.03324021 58.29117282 63.15625 42.0703125 C60.743168 36.84287809 57.19701293 32.69277756 53.375 28.4375 C52.73820312 27.61378906 52.10140625 26.79007813 51.4453125 25.94140625 C44.78064345 17.88092915 35.95447929 12.38199147 26.375 8.4375 C24.87646484 7.81681641 24.87646484 7.81681641 23.34765625 7.18359375 C-3.15349758 -2.03559552 -33.57211637 6.35877323 -52.0703125 27.19140625 Z " fill="#FCECD9" transform="translate(89.625,16.5625)"/>
<path d="M0 0 C1.56161865 0.00749268 1.56161865 0.00749268 3.15478516 0.01513672 C16.57276578 0.31450696 28.32619476 3.68855736 39.375 11.5 C40.00535156 11.89960937 40.63570313 12.29921875 41.28515625 12.7109375 C46.18134 15.91766884 49.68367958 20.00243829 53.375 24.5 C54.04917969 25.26441406 54.72335938 26.02882813 55.41796875 26.81640625 C60.39033374 32.62838259 64.73673037 38.91004196 66.375 46.5 C65.4921875 49.859375 65.4921875 49.859375 64.375 52.5 C65.035 52.5 65.695 52.5 66.375 52.5 C66.705 55.47 67.035 58.44 67.375 61.5 C66.055 61.17 64.735 60.84 63.375 60.5 C63.045 56.87 62.715 53.24 62.375 49.5 C61.715 49.5 61.055 49.5 60.375 49.5 C60.16875 48.22125 59.9625 46.9425 59.75 45.625 C58.67331056 40.65808228 56.46291699 36.89703596 53.71484375 32.6640625 C52.375 30.5 52.375 30.5 51.375 27.5 C49.89 27.005 49.89 27.005 48.375 26.5 C48.375 25.84 48.375 25.18 48.375 24.5 C47.48554688 24.35884766 47.48554688 24.35884766 46.578125 24.21484375 C43.88357359 23.34054781 42.91177244 22.23279682 41.125 20.0625 C40.34382813 19.13630859 40.34382813 19.13630859 39.546875 18.19140625 C38.375 16.5 38.375 16.5 38.375 14.5 C36.395 14.17 34.415 13.84 32.375 13.5 C32.375 12.84 32.375 12.18 32.375 11.5 C31.4675 11.37625 30.56 11.2525 29.625 11.125 C26.67878399 10.55842 24.99954768 9.81227384 22.375 8.5 C14.80716852 6.06682191 7.27455636 6.06068987 -0.625 5.875 C-1.98569998 5.83674348 -3.34637774 5.79768752 -4.70703125 5.7578125 C-8.0128882 5.66402932 -11.31874674 5.57832611 -14.625 5.5 C-14.625 6.16 -14.625 6.82 -14.625 7.5 C-16.935 7.5 -19.245 7.5 -21.625 7.5 C-21.625 8.16 -21.625 8.82 -21.625 9.5 C-24.925 9.83 -28.225 10.16 -31.625 10.5 C-30.965 11.16 -30.305 11.82 -29.625 12.5 C-30.87056092 13.31928886 -32.12166635 14.13015186 -33.375 14.9375 C-34.07109375 15.38996094 -34.7671875 15.84242187 -35.484375 16.30859375 C-37.625 17.5 -37.625 17.5 -39.828125 17.97265625 C-40.42109375 18.14667969 -41.0140625 18.32070313 -41.625 18.5 C-41.955 19.49 -42.285 20.48 -42.625 21.5 C-43.285 21.5 -43.945 21.5 -44.625 21.5 C-44.625 22.49 -44.625 23.48 -44.625 24.5 C-45.285 24.5 -45.945 24.5 -46.625 24.5 C-46.625 25.16 -46.625 25.82 -46.625 26.5 C-48.275 27.16 -49.925 27.82 -51.625 28.5 C-51.625 29.49 -51.625 30.48 -51.625 31.5 C-52.285 31.5 -52.945 31.5 -53.625 31.5 C-54.615 35.46 -55.605 39.42 -56.625 43.5 C-57.285 43.5 -57.945 43.5 -58.625 43.5 C-58.295 45.15 -57.965 46.8 -57.625 48.5 C-59.275 49.16 -60.925 49.82 -62.625 50.5 C-62.8415625 52.2015625 -62.8415625 52.2015625 -63.0625 53.9375 C-63.625 57.5 -63.625 57.5 -64.625 58.5 C-64.61326475 62.61211979 -64.23596403 66.71254672 -63.9375 70.8125 C-63.87111328 71.94751953 -63.80472656 73.08253906 -63.73632812 74.25195312 C-63.22469673 81.31407781 -61.94904251 87.43010084 -59.45385742 94.06323242 C-58.625 96.5 -58.625 96.5 -58.625 99.5 C-57.635 99.83 -56.645 100.16 -55.625 100.5 C-54.703125 102.13671875 -54.703125 102.13671875 -53.875 104.1875 C-51.98720791 108.30229682 -49.63384657 110.52292552 -46.015625 113.17578125 C-45.55671875 113.61277344 -45.0978125 114.04976563 -44.625 114.5 C-44.625 115.49 -44.625 116.48 -44.625 117.5 C-43.965 117.5 -43.305 117.5 -42.625 117.5 C-42.13 118.49 -42.13 118.49 -41.625 119.5 C-39.60036745 120.15213292 -39.60036745 120.15213292 -37.625 120.5 C-37.625 121.16 -37.625 121.82 -37.625 122.5 C-37.0475 122.5825 -36.47 122.665 -35.875 122.75 C-33.625 123.5 -33.625 123.5 -31.8359375 125.37890625 C-26.00882389 130.96922902 -17.46095602 133.00257804 -9.5859375 133.359375 C-7.625 133.5 -7.625 133.5 -5.625 134.5 C-5.625 135.16 -5.625 135.82 -5.625 136.5 C-16.86464855 139.11940962 -26.95184113 135.11727924 -36.4453125 129.22265625 C-52.07707961 118.86049218 -63.12703993 103.82219893 -67.625 85.5 C-71.14455704 65.25081516 -67.82448627 46.07106159 -56.35546875 28.953125 C-55.49888672 27.73882812 -55.49888672 27.73882812 -54.625 26.5 C-54.18800781 25.87609375 -53.75101563 25.2521875 -53.30078125 24.609375 C-40.80400547 8.54745298 -19.94461254 -0.12716035 0 0 Z " fill="#D67F45" transform="translate(89.625,20.5)"/>
<path d="M0 0 C0.65484375 0.51175781 1.3096875 1.02351563 1.984375 1.55078125 C1.984375 2.21078125 1.984375 2.87078125 1.984375 3.55078125 C2.55027344 3.77894531 3.11617188 4.00710937 3.69921875 4.2421875 C6.60112361 5.90396208 8.35823944 7.96635094 10.546875 10.48828125 C13.52840886 13.93547772 13.52840886 13.93547772 16.6953125 17.20703125 C18.47667107 19.0639626 19.06842442 21.16930975 19.984375 23.55078125 C20.644375 24.21078125 21.304375 24.87078125 21.984375 25.55078125 C31.79686779 49.14875983 31.22432291 70.31492726 23.984375 94.55078125 C23.324375 94.55078125 22.664375 94.55078125 21.984375 94.55078125 C21.9225 95.43765625 21.860625 96.32453125 21.796875 97.23828125 C20.78854634 101.34915962 19.04729004 102.70664586 15.984375 105.55078125 C15.4275 106.47890625 14.870625 107.40703125 14.296875 108.36328125 C13.86375 109.08515625 13.430625 109.80703125 12.984375 110.55078125 C12.324375 110.55078125 11.664375 110.55078125 10.984375 110.55078125 C10.75105469 111.11925781 10.51773438 111.68773437 10.27734375 112.2734375 C7.63248052 116.93191262 3.02396093 120.12175869 -1.015625 123.55078125 C-1.56089844 124.040625 -2.10617188 124.53046875 -2.66796875 125.03515625 C-8.69010851 129.95510067 -16.762027 132.04954056 -24.015625 134.55078125 C-25.64177734 135.11345703 -25.64177734 135.11345703 -27.30078125 135.6875 C-43.688054 140.89841695 -62.87117288 137.58597 -78.015625 130.55078125 C-77.025625 129.89078125 -76.035625 129.23078125 -75.015625 128.55078125 C-72.4921875 129.1953125 -72.4921875 129.1953125 -69.640625 130.36328125 C-62.04705088 133.42790551 -55.4473565 133.73333352 -47.328125 133.73828125 C-46.28978516 133.75052734 -45.25144531 133.76277344 -44.18164062 133.77539062 C-26.97897988 133.80774673 -12.33079201 128.40505931 0.984375 117.55078125 C2.25087891 116.58205078 2.25087891 116.58205078 3.54296875 115.59375 C13.85918415 106.96114095 20.10454764 94.19752621 23.984375 81.55078125 C24.21125 80.82117188 24.438125 80.0915625 24.671875 79.33984375 C29.48250948 60.29774893 25.63364056 40.10800358 16.06494141 23.33398438 C13.4549748 19.02689082 10.37205889 15.26046282 6.984375 11.55078125 C6.40558594 10.86886719 5.82679688 10.18695313 5.23046875 9.484375 C-5.15080085 -1.97313854 -21.27366165 -9.59504183 -36.65600586 -10.6262207 C-55.23198978 -11.1589353 -55.23198978 -11.1589353 -73.015625 -6.44921875 C-74.04429688 -6.02511719 -75.07296875 -5.60101563 -76.1328125 -5.1640625 C-83.71629917 -1.70035803 -89.83351185 3.00650517 -96.015625 8.55078125 C-96.66273437 9.10378906 -97.30984375 9.65679687 -97.9765625 10.2265625 C-105.16461598 16.78037597 -109.80453345 25.90764581 -114.015625 34.55078125 C-114.675625 34.55078125 -115.335625 34.55078125 -116.015625 34.55078125 C-116.345625 35.21078125 -116.675625 35.87078125 -117.015625 36.55078125 C-116.3629185 32.38589212 -115.00340855 28.88465423 -113.265625 25.05078125 C-112.53085938 23.395625 -112.53085938 23.395625 -111.78125 21.70703125 C-109.18007465 17.05714256 -106.0010257 13.58187042 -101.015625 11.55078125 C-101.015625 9.24078125 -101.015625 6.93078125 -101.015625 4.55078125 C-100.025625 4.88078125 -99.035625 5.21078125 -98.015625 5.55078125 C-96.01070053 4.11478072 -94.19293323 2.6520472 -92.328125 1.05078125 C-64.94598574 -21.15232455 -28.52038939 -18.16764918 0 0 Z " fill="#D59468" transform="translate(136.015625,28.44921875)"/>
<path d="M0 0 C0.79792969 0.00193359 1.59585938 0.00386719 2.41796875 0.00585938 C3.24683594 0.01810547 4.07570313 0.03035156 4.9296875 0.04296875 C5.76628906 0.04361328 6.60289063 0.04425781 7.46484375 0.04492188 C13.66435587 0.09013712 13.66435587 0.09013712 14.8046875 1.23046875 C14.87788371 3.92701729 14.89711287 6.59738333 14.8671875 9.29296875 C14.86267578 10.05158203 14.85816406 10.81019531 14.85351562 11.59179688 C14.8416943 13.47138746 14.82375828 15.35093774 14.8046875 17.23046875 C14.1446875 17.23046875 13.4846875 17.23046875 12.8046875 17.23046875 C12.8046875 17.89046875 12.8046875 18.55046875 12.8046875 19.23046875 C15.1146875 18.24046875 17.4246875 17.25046875 19.8046875 16.23046875 C19.8046875 18.54046875 19.8046875 20.85046875 19.8046875 23.23046875 C18.5259375 23.47796875 17.2471875 23.72546875 15.9296875 23.98046875 C12.64751145 24.73826604 12.64751145 24.73826604 10.3671875 27.10546875 C10.1815625 27.80671875 9.9959375 28.50796875 9.8046875 29.23046875 C9.4953125 30.34421875 9.4953125 30.34421875 9.1796875 31.48046875 C9.0559375 32.05796875 8.9321875 32.63546875 8.8046875 33.23046875 C7.4846875 33.23046875 6.1646875 33.23046875 4.8046875 33.23046875 C4.8046875 34.55046875 4.8046875 35.87046875 4.8046875 37.23046875 C2.8246875 37.72546875 2.8246875 37.72546875 0.8046875 38.23046875 C0.4746875 34.27046875 0.1446875 30.31046875 -0.1953125 26.23046875 C-1.1646875 26.10671875 -2.1340625 25.98296875 -3.1328125 25.85546875 C-4.64875 25.54609375 -4.64875 25.54609375 -6.1953125 25.23046875 C-8.08331538 21.45446299 -7.42335734 16.88548305 -7.4453125 12.73046875 C-7.4659375 11.75464844 -7.4865625 10.77882813 -7.5078125 9.7734375 C-7.51296875 8.84144531 -7.518125 7.90945312 -7.5234375 6.94921875 C-7.5327832 6.09263672 -7.54212891 5.23605469 -7.55175781 4.35351562 C-7.43413086 3.65291016 -7.31650391 2.95230469 -7.1953125 2.23046875 C-4.11562187 0.17734167 -3.47562545 -0.01950879 0 0 Z " fill="#F07023" transform="translate(83.1953125,94.76953125)"/>
<path d="M0 0 C0.99 0 1.98 0 3 0 C5.20208494 20.05859551 1.2237595 36.34035176 -11.5390625 52.2578125 C-19.51265942 61.67810808 -28.86907412 68.05708923 -40.3125 72.5625 C-41.29899536 72.95864502 -41.29899536 72.95864502 -42.30541992 73.36279297 C-46.89373528 75.03306262 -50.2576839 75.0245366 -55 74 C-55 73.01 -55 72.02 -55 71 C-53.95199219 70.72285156 -52.90398437 70.44570312 -51.82421875 70.16015625 C-50.44529933 69.79432048 -49.0663938 69.42843233 -47.6875 69.0625 C-46.65206055 68.78889648 -46.65206055 68.78889648 -45.59570312 68.50976562 C-42.70112156 67.7406739 -39.84215271 66.94738424 -37 66 C-38.485 65.505 -38.485 65.505 -40 65 C-40 64.34 -40 63.68 -40 63 C-41.485 62.505 -41.485 62.505 -43 62 C-39.38323726 60.19161863 -35.03841752 61.10692045 -31.06640625 61.2578125 C-28.07229817 61.23060103 -28.07229817 61.23060103 -26.08984375 59.8671875 C-24.49590431 57.49668185 -24.49590431 57.49668185 -25 52 C-36.22 52 -47.44 52 -59 52 C-59 51.34 -59 50.68 -59 50 C-47.78 50 -36.56 50 -25 50 C-25 46.04 -25 42.08 -25 38 C-24.34 38 -23.68 38 -23 38 C-22.505 44.93 -22.505 44.93 -22 52 C-21.34 52 -20.68 52 -20 52 C-20.185625 51.21625 -20.37125 50.4325 -20.5625 49.625 C-21 47 -21 47 -20 45 C-18.68 45.33 -17.36 45.66 -16 46 C-16.33 47.32 -16.66 48.64 -17 50 C-16.34 50 -15.68 50 -15 50 C-14.34 48.35 -13.68 46.7 -13 45 C-12.34 45 -11.68 45 -11 45 C-10.7421875 44.33613281 -10.484375 43.67226562 -10.21875 42.98828125 C-9.29847563 40.73183928 -8.34481444 38.51323498 -7.34375 36.29296875 C-7.04339844 35.62330078 -6.74304688 34.95363281 -6.43359375 34.26367188 C-5.81557804 32.88929803 -5.19323822 31.51685972 -4.56640625 30.14648438 C-1.18103557 22.55482696 0.32515256 15.81402933 0.125 7.5 C0.11597656 6.77296875 0.10695312 6.0459375 0.09765625 5.296875 C0.07442241 3.5311028 0.03856683 1.76550386 0 0 Z " fill="#DD773C" transform="translate(155,83)"/>
<path d="M0 0 C2.53518597 2.05250047 3.69652294 4.01514646 5.27734375 6.84375 C6.83479912 8.63896298 6.83479912 8.63896298 8.46484375 10.15625 C9.39296875 11.043125 10.32109375 11.93 11.27734375 12.84375 C10.94734375 13.50375 10.61734375 14.16375 10.27734375 14.84375 C9.34728516 13.80927734 9.34728516 13.80927734 8.3984375 12.75390625 C-3.52333148 0.1032955 -18.57041707 -9.14049656 -36.36303711 -10.33325195 C-54.93902103 -10.86596655 -54.93902103 -10.86596655 -72.72265625 -6.15625 C-73.75132813 -5.73214844 -74.78 -5.30804688 -75.83984375 -4.87109375 C-83.42333042 -1.40738928 -89.5405431 3.29947392 -95.72265625 8.84375 C-96.36976562 9.39675781 -97.016875 9.94976562 -97.68359375 10.51953125 C-104.87164723 17.07334472 -109.5115647 26.20061456 -113.72265625 34.84375 C-114.38265625 34.84375 -115.04265625 34.84375 -115.72265625 34.84375 C-116.05265625 35.50375 -116.38265625 36.16375 -116.72265625 36.84375 C-116.06994975 32.67886087 -114.7104398 29.17762298 -112.97265625 25.34375 C-112.23789063 23.68859375 -112.23789063 23.68859375 -111.48828125 22 C-108.8871059 17.35011131 -105.70805695 13.87483917 -100.72265625 11.84375 C-100.72265625 9.53375 -100.72265625 7.22375 -100.72265625 4.84375 C-99.73265625 5.17375 -98.74265625 5.50375 -97.72265625 5.84375 C-95.71773178 4.40774947 -93.89996448 2.94501595 -92.03515625 1.34375 C-64.72393958 -20.80184744 -28.59587029 -17.80418356 0 0 Z " fill="#D99364" transform="translate(135.72265625,28.15625)"/>
<path d="M0 0 C11.22 0 22.44 0 34 0 C34 3.96 34 7.92 34 12 C31.03 12 28.06 12 25 12 C25 18.93 25 25.86 25 33 C34.9 33 44.8 33 55 33 C55 26.07 55 19.14 55 12 C55.66 12 56.32 12 57 12 C57.02887512 15.64581687 57.04675585 19.29160463 57.0625 22.9375 C57.07087891 23.97841797 57.07925781 25.01933594 57.08789062 26.09179688 C57.09111328 27.08115234 57.09433594 28.07050781 57.09765625 29.08984375 C57.10289307 30.00628662 57.10812988 30.92272949 57.11352539 31.86694336 C57 34 57 34 56 35 C53.63359486 35.02931358 51.30084299 34.99571965 48.9375 34.9140625 C48.23101318 34.89282318 47.52452637 34.87158386 46.79663086 34.84970093 C45.30021268 34.8033665 43.80387311 34.75443253 42.30761719 34.703125 C40.00993367 34.62533631 37.71211154 34.55818376 35.4140625 34.4921875 C33.96352114 34.44595199 32.51299934 34.39909782 31.0625 34.3515625 C30.3708374 34.33171295 29.6791748 34.3118634 28.96655273 34.29141235 C24.11502234 34.11502234 24.11502234 34.11502234 23 33 C22.84259395 31.29436222 22.74906608 29.58272756 22.68359375 27.87109375 C22.64169922 26.83662109 22.59980469 25.80214844 22.55664062 24.73632812 C22.51732422 23.64771484 22.47800781 22.55910156 22.4375 21.4375 C22.39431641 20.34501953 22.35113281 19.25253906 22.30664062 18.12695312 C22.20017932 15.41810436 22.09816484 12.70916008 22 10 C25.41610225 9.05685873 28.45134864 8.91934883 32 9 C32 6.69 32 4.38 32 2 C22.1 2 12.2 2 2 2 C2.33 4.31 2.66 6.62 3 9 C5.31 9 7.62 9 10 9 C10 30.45 10 51.9 10 74 C9.67 74 9.34 74 9 74 C9 53.54 9 33.08 9 12 C6.03 12 3.06 12 0 12 C0 8.04 0 4.08 0 0 Z " fill="#FEE6C9" transform="translate(50,47)"/>
<path d="M0 0 C11.22 0 22.44 0 34 0 C34 3.96 34 7.92 34 12 C31.03 12 28.06 12 25 12 C25 32.46 25 52.92 25 74 C27.97 74 30.94 74 34 74 C34 77.96 34 81.92 34 86 C22.78 86 11.56 86 0 86 C0 82.04 0 78.08 0 74 C2.97 74 5.94 74 9 74 C9 74.33 9 74.66 9 75 C6.36 75 3.72 75 1 75 C1 78.3 1 81.6 1 85 C11.56 85 22.12 85 33 85 C32.67 83.68 32.34 82.36 32 81 C32 79.68 32 78.36 32 77 C29.03 76.34 26.06 75.68 23 75 C21.7441457 68.30515711 21.93371612 61.70925126 22.05078125 54.91796875 C22.07908272 53.04217888 22.07908272 53.04217888 22.10795593 51.12849426 C22.1603681 47.82319799 22.21867752 44.51806178 22.27832031 41.21289062 C22.32397118 38.50775054 22.35821746 35.80250979 22.39277363 33.09720898 C22.43653846 29.87064425 22.49448216 26.64433541 22.55078125 23.41796875 C22.56546951 22.20344528 22.58015778 20.98892181 22.59529114 19.7375946 C22.61838852 18.61915665 22.6414859 17.50071869 22.6652832 16.34838867 C22.68162308 15.36134445 22.69796295 14.37430023 22.71479797 13.35734558 C23 11 23 11 25 9 C28.125 8.875 28.125 8.875 31 9 C31.66 6.36 32.32 3.72 33 1 C22.44 1 11.88 1 1 1 C1 4.3 1 7.6 1 11 C3.64 11 6.28 11 9 11 C9 11.33 9 11.66 9 12 C6.03 12 3.06 12 0 12 C0 8.04 0 4.08 0 0 Z " fill="#FEEBD2" transform="translate(96,47)"/>
<path d="M0 0 C0.33 0 0.66 0 1 0 C1.12615113 7.31676549 1.12615113 7.31676549 0.51171875 10.64453125 C-2.59273334 31.00120566 1.55327224 49.62454472 12.796875 66.734375 C14.44360503 68.92497917 16.15882104 70.97102895 18 73 C18.59167969 73.67160156 19.18335937 74.34320313 19.79296875 75.03515625 C24.48258557 80.05352972 29.72486231 83.63874483 35.55859375 87.23828125 C38 89 38 89 39 92 C29.80300845 88.54912184 21.62520651 82.20131142 15 75 C14.32714526 73.33582191 13.65927904 71.66960276 13 70 C11.515 69.505 11.515 69.505 10 69 C-0.8919899 56.84211297 -4.33144586 37.2381332 -4.23046875 21.4453125 C-3.7763829 14.65711389 -3.06281775 6.12563549 0 0 Z " fill="#DB9765" transform="translate(18,66)"/>
<path d="M0 0 C9.9 0 19.8 0 30 0 C30 8.91 30 17.82 30 27 C27.03 27 24.06 27 21 27 C21 30.63 21 34.26 21 38 C20.67 38 20.34 38 20 38 C19.91917906 36.04233719 19.86089222 34.08373272 19.8125 32.125 C19.77769531 31.03445312 19.74289063 29.94390625 19.70703125 28.8203125 C19.80371094 27.88960937 19.90039062 26.95890625 20 26 C23.22791555 23.8480563 24.28400809 23.79913557 28 24 C27.67 22.02 27.34 20.04 27 18 C26.01 18.66 25.02 19.32 24 20 C23.01 20 22.02 20 21 20 C21 19.34 21 18.68 21 18 C21.66 18 22.32 18 23 18 C22.67 12.72 22.34 7.44 22 2 C19.04160645 1.97310551 16.08345573 1.95321259 13.125 1.9375 C12.28324219 1.92912109 11.44148438 1.92074219 10.57421875 1.91210938 C9.76855469 1.90888672 8.96289062 1.90566406 8.1328125 1.90234375 C7.38918457 1.89710693 6.64555664 1.89187012 5.87939453 1.88647461 C3.90867432 1.88213364 3.90867432 1.88213364 2 3 C2 10.59 2 18.18 2 26 C3.98 26 5.96 26 8 26 C8 26.33 8 26.66 8 27 C5.36 27 2.72 27 0 27 C0 18.09 0 9.18 0 0 Z " fill="#EF7026" transform="translate(75,94)"/>
<path d="M0 0 C5.94 0 11.88 0 18 0 C18 0.66 18 1.32 18 2 C19.65 2 21.3 2 23 2 C20.42501192 4.57498808 18.16172058 5.06266755 14.6875 6.125 C13.55699219 6.47820312 12.42648438 6.83140625 11.26171875 7.1953125 C8.33613198 7.91707403 5.98951921 8.16826562 3 8 C3 8.99 3 9.98 3 11 C4.65 11 6.3 11 8 11 C4.63541082 13.24305946 3.46483729 13.25653373 -0.47265625 13.265625 C-1.53677734 13.26820313 -2.60089844 13.27078125 -3.69726562 13.2734375 C-4.80779297 13.26570312 -5.91832031 13.25796875 -7.0625 13.25 C-8.17689453 13.25773438 -9.29128906 13.26546875 -10.43945312 13.2734375 C-11.50228516 13.27085937 -12.56511719 13.26828125 -13.66015625 13.265625 C-14.63605713 13.26336914 -15.61195801 13.26111328 -16.61743164 13.25878906 C-19 13 -19 13 -21 11 C-17.71303767 10.20046862 -16.28976808 9.90341064 -13 11 C-13.33 10.01 -13.66 9.02 -14 8 C-13.01 7.67 -12.02 7.34 -11 7 C-10.67 8.32 -10.34 9.64 -10 11 C-6.04 11 -2.08 11 2 11 C2 10.34 2 9.68 2 9 C-1.63 9 -5.26 9 -9 9 C-9 8.67 -9 8.34 -9 8 C-7.906875 7.690625 -6.81375 7.38125 -5.6875 7.0625 C-3.44592006 6.41662103 -1.2130649 5.7376883 1 5 C1.33 4.34 1.66 3.68 2 3 C1.01 2.67 0.02 2.34 -1 2 C-0.67 1.34 -0.34 0.68 0 0 Z " fill="#EB7125" transform="translate(97,146)"/>
<path d="M0 0 C15.84 0.495 15.84 0.495 32 1 C32 10.24 32 19.48 32 29 C31.67 29 31.34 29 31 29 C31 20.09 31 11.18 31 2 C21.1 2 11.2 2 1 2 C1 10.91 1 19.82 1 29 C3.97 29 6.94 29 10 29 C10 32.96 10 36.92 10 41 C-1.22 41 -12.44 41 -24 41 C-24 37.04 -24 33.08 -24 29 C-21.03 29 -18.06 29 -15 29 C-15 29.33 -15 29.66 -15 30 C-17.64 30 -20.28 30 -23 30 C-22.34 32.97 -21.68 35.94 -21 39 C-11.43 39 -1.86 39 8 39 C8.33 37.02 8.66 35.04 9 33 C6.03 33 3.06 33 0 33 C0 22.11 0 11.22 0 0 Z " fill="#FDDCBF" transform="translate(74,92)"/>
<path d="M0 0 C2 1 2 1 2.6328125 2.7578125 C4.25371002 10.55355774 4.19032148 18.06993814 4 26 C3.67 26 3.34 26 3 26 C3 22.04 3 18.08 3 14 C2.01 14 1.02 14 0 14 C0 19.28 0 24.56 0 30 C0.66 30.33 1.32 30.66 2 31 C1.34 31 0.68 31 0 31 C-0.18175781 31.90492187 -0.18175781 31.90492187 -0.3671875 32.828125 C-0.53476563 33.62734375 -0.70234375 34.4265625 -0.875 35.25 C-1.03742188 36.03890625 -1.19984375 36.8278125 -1.3671875 37.640625 C-1.99150075 39.96831144 -2.84838542 41.89031952 -4 44 C-5.98 44 -7.96 44 -10 44 C-9.67 38.39 -9.34 32.78 -9 27 C-7.68 27.33 -6.36 27.66 -5 28 C-2.87780112 24.55142681 -2.92017352 21.99132405 -3 18 C-2.70285977 15.99430341 -2.37938617 13.99177741 -2 12 C-0.68 12.33 0.64 12.66 2 13 C1.67 10.03 1.34 7.06 1 4 C0.34 4 -0.32 4 -1 4 C-0.67 2.68 -0.34 1.36 0 0 Z " fill="#ED7225" transform="translate(155,69)"/>
<path d="M0 0 C2 2 2 2 2 5 C2.66 5 3.32 5 4 5 C4.02543118 11.56533986 4.04290097 18.13066693 4.05493164 24.69604492 C4.05994905 26.92782058 4.06676446 29.15959298 4.07543945 31.39135742 C4.08761871 34.60596526 4.09325435 37.82052949 4.09765625 41.03515625 C4.10281754 42.02709488 4.10797882 43.01903351 4.11329651 44.04103088 C4.11370605 49.14023513 3.88172257 53.97509663 3 59 C2.34 59 1.68 59 1 59 C0.67 59.99 0.34 60.98 0 62 C-1 61 -1 61 -1.125 58 C-1 55 -1 55 0 54 C0.09838122 52.48125021 0.12798529 50.95796741 0.12939453 49.43603516 C0.13254669 48.46477692 0.13569885 47.49351868 0.13894653 46.49282837 C0.1369223 45.43558563 0.13489807 44.3783429 0.1328125 43.2890625 C0.13376923 42.20998627 0.13472595 41.13091003 0.13571167 40.01913452 C0.13639377 37.73085472 0.13453742 35.44257299 0.13037109 33.15429688 C0.12503362 29.64709117 0.13030975 26.14001414 0.13671875 22.6328125 C0.13605777 20.41406222 0.1347762 18.19531201 0.1328125 15.9765625 C0.13483673 14.92336823 0.13686096 13.87017395 0.13894653 12.7850647 C0.13579437 11.80750214 0.13264221 10.82993958 0.12939453 9.82275391 C0.12859894 8.96195221 0.12780334 8.10115051 0.12698364 7.21426392 C0.08671822 4.82449937 0.08671822 4.82449937 -1 2 C-0.67 1.34 -0.34 0.68 0 0 Z " fill="#F76E18" transform="translate(49,59)"/>
<path d="M0 0 C3.80668295 1.53481294 5.8962489 3.86522081 8.5625 6.9375 C11.54403386 10.38469647 11.54403386 10.38469647 14.7109375 13.65625 C16.49229607 15.51318135 17.08404942 17.6185285 18 20 C18.66 20.66 19.32 21.32 20 22 C27.44832046 39.91240111 29.80181655 56.85513808 26 76 C25.67 76 25.34 76 25 76 C25 66.76 25 57.52 25 48 C24.67 48 24.34 48 24 48 C23.87625 47.175 23.7525 46.35 23.625 45.5 C22.32131067 38.19933976 20.39649006 32.03794072 17.0625 25.4375 C16.72669922 24.77169922 16.39089844 24.10589844 16.04492188 23.41992188 C14.03526108 19.59107103 11.75691096 16.35024615 9 13 C8.5978125 11.824375 8.5978125 11.824375 8.1875 10.625 C6.61199853 7.14231254 4.22416078 5.04717135 1.4609375 2.453125 C0.97882813 1.97359375 0.49671875 1.4940625 0 1 C0 0.67 0 0.34 0 0 Z " fill="#EBA471" transform="translate(138,32)"/>
<path d="M0 0 C0.99 0 1.98 0 3 0 C4.1289635 11.62096126 4.59105246 21.02482309 0 32 C-0.66 32 -1.32 32 -2 32 C-2.309375 32.94875 -2.61875 33.8975 -2.9375 34.875 C-4 38 -4 38 -5 40 C-5.66 40 -6.32 40 -7 40 C-7 40.66 -7 41.32 -7 42 C-7.66 42 -8.32 42 -9 42 C-7.920042 37.58198999 -6.44412739 33.68015035 -4.5 29.5625 C0.13716529 19.4400743 0.23855764 10.92063865 0 0 Z " fill="#DA8753" transform="translate(155,83)"/>
<path d="M0 0 C-4.02558344 4.65357446 -8.04717178 6.69617859 -13.75 8.875 C-14.51054688 9.1946875 -15.27109375 9.514375 -16.0546875 9.84375 C-21.81737592 12.09022176 -25.98111594 11.99895192 -32 11 C-33.45813122 10.87545062 -34.91799639 10.7696262 -36.37890625 10.68359375 C-37.07177734 10.64169922 -37.76464844 10.59980469 -38.47851562 10.55664062 C-39.16623047 10.51732422 -39.85394531 10.47800781 -40.5625 10.4375 C-41.28501953 10.39431641 -42.00753906 10.35113281 -42.75195312 10.30664062 C-44.50118139 10.20238199 -46.25057405 10.10088714 -48 10 C-48 9.67 -48 9.34 -48 9 C-46.79085937 8.97421875 -45.58171875 8.9484375 -44.3359375 8.921875 C-30.09906412 8.48386228 -18.46973328 5.87439655 -5.42578125 -0.14453125 C-3 -1 -3 -1 0 0 Z " fill="#FCF6E5" transform="translate(131,150)"/>
<path d="M0 0 C0.82113281 0.3609375 1.64226563 0.721875 2.48828125 1.09375 C18.23025738 7.14503725 35.43405272 5.44661409 52 5 C41.87306854 11.75128764 24.36019804 9.93282573 12.90625 7.77734375 C7.71772032 6.38955154 2.86205625 4.25861478 -2 2 C-1.34 1.34 -0.68 0.68 0 0 Z " fill="#E09F71" transform="translate(60,157)"/>
<path d="M0 0 C1.32 0 2.64 0 4 0 C4 19.14 4 38.28 4 58 C2.68 58 1.36 58 0 58 C0.16076523 57.28137283 0.32153046 56.56274567 0.48716736 55.82234192 C0.9810248 53.10442878 1.15643919 50.60093162 1.20532227 47.8425293 C1.2352401 46.34153938 1.2352401 46.34153938 1.26576233 44.81022644 C1.28247482 43.7423439 1.29918732 42.67446136 1.31640625 41.57421875 C1.33718735 40.47149124 1.35796844 39.36876373 1.37937927 38.23262024 C1.44464932 34.71764222 1.50365495 31.20259088 1.5625 27.6875 C1.60570665 25.30142477 1.64932163 22.91535691 1.69335938 20.52929688 C1.8003076 14.68627494 1.90211555 8.84318042 2 3 C1.34 3 0.68 3 0 3 C0 2.01 0 1.02 0 0 Z " fill="#F06F1B" transform="translate(54,61)"/>
<path d="M0 0 C0.33 0 0.66 0 1 0 C0.98952637 0.57854736 0.97905273 1.15709473 0.96826172 1.75317383 C0.5825252 17.00553455 0.5825252 17.00553455 3 32 C3.19078125 32.72832031 3.3815625 33.45664063 3.578125 34.20703125 C4.02169537 35.81338965 4.50494574 37.40875417 5 39 C4.34 39 3.68 39 3 39 C2.67 40.32 2.34 41.64 2 43 C1.18101734 40.79388434 0.36972457 38.5854166 -0.4375 36.375 C-0.88996094 35.14523438 -1.34242187 33.91546875 -1.80859375 32.6484375 C-4.06526902 25.73783191 -4.12591155 19.32465012 -4.0625 12.125 C-4.05798828 11.15046875 -4.05347656 10.1759375 -4.04882812 9.171875 C-4.03710906 6.78118566 -4.02070219 4.3906256 -4 2 C-3.67 2 -3.34 2 -3 2 C-2.67 7.61 -2.34 13.22 -2 19 C-1.71108163 13.49560879 -1.71108163 13.49560879 -1.43188477 7.99072266 C-1.11111111 2.22222222 -1.11111111 2.22222222 0 0 Z " fill="#FCE8D0" transform="translate(21,78)"/>
<path d="M0 0 C0.33 1.32 0.66 2.64 1 4 C1.66 4 2.32 4 3 4 C4.39841771 8.19525312 4.19108594 12.16733408 4.1875 16.5625 C4.18741943 17.46476318 4.18733887 18.36702637 4.18725586 19.29663086 C4.12490889 26.56366279 3.30050698 33.09847905 1 40 C0.34 40 -0.32 40 -1 40 C-1.02725341 38.2709226 -1.04650987 36.54171824 -1.0625 34.8125 C-1.07410156 33.84957031 -1.08570313 32.88664062 -1.09765625 31.89453125 C-1 29 -1 29 -0.5 26.67773438 C0.03579768 23.80828663 0.11325794 21.17923557 0.09765625 18.26171875 C0.09443359 17.19501953 0.09121094 16.12832031 0.08789062 15.02929688 C0.07951172 13.92650391 0.07113281 12.82371094 0.0625 11.6875 C0.05798828 10.56537109 0.05347656 9.44324219 0.04882812 8.28710938 C0.03707313 5.5246849 0.02064077 2.76237002 0 0 Z " fill="#FEF8E6" transform="translate(159,73)"/>
<path d="M0 0 C3.91651903 -0.08859875 7.83277374 -0.14091917 11.75 -0.1875 C13.38775391 -0.22520508 13.38775391 -0.22520508 15.05859375 -0.26367188 C24.9385998 -0.35136424 33.72813745 1.65182741 43 5 C42.34 6.32 41.68 7.64 41 9 C40.07703125 8.72285156 39.1540625 8.44570313 38.203125 8.16015625 C27.13359116 5.02455545 16.47276459 4.23509764 5 4 C5 3.67 5 3.34 5 3 C11.27 2.67 17.54 2.34 24 2 C16.08 1.67 8.16 1.34 0 1 C0 0.67 0 0.34 0 0 Z " fill="#FCE7CD" transform="translate(77,17)"/>
<path d="M0 0 C9.9 0 19.8 0 30 0 C30 8.91 30 17.82 30 27 C27.03 27 24.06 27 21 27 C21 30.63 21 34.26 21 38 C20.67 38 20.34 38 20 38 C20 34.04 20 30.08 20 26 C22.97 26 25.94 26 29 26 C29 17.75 29 9.5 29 1 C24.91625 1.144375 20.8325 1.28875 16.625 1.4375 C15.33803223 1.48060303 14.05106445 1.52370605 12.72509766 1.56811523 C11.20988525 1.6252771 11.20988525 1.6252771 9.6640625 1.68359375 C8.10872803 1.73858032 8.10872803 1.73858032 6.52197266 1.79467773 C4.00574834 1.84164223 4.00574834 1.84164223 2 3 C2 10.59 2 18.18 2 26 C3.98 26 5.96 26 8 26 C8 26.33 8 26.66 8 27 C5.36 27 2.72 27 0 27 C0 18.09 0 9.18 0 0 Z " fill="#CB6E36" transform="translate(75,94)"/>
<path d="M0 0 C11.88 0 23.76 0 36 0 C36 4.29 36 8.58 36 13 C35.34 13.33 34.68 13.66 34 14 C34 10.37 34 6.74 34 3 C22.78 3 11.56 3 0 3 C0 2.01 0 1.02 0 0 Z " fill="#D97235" transform="translate(96,44)"/>
<path d="M0 0 C0.33 0.66 0.66 1.32 1 2 C1.66 2 2.32 2 3 2 C3.33 1.34 3.66 0.68 4 0 C5.06577442 2.02918632 6.10180187 4.07401541 7.125 6.125 C7.70507812 7.26195312 8.28515625 8.39890625 8.8828125 9.5703125 C10.19127446 13.5871992 9.73144032 15.22752406 8 19 C8.66 19 9.32 19 10 19 C10.33 21.97 10.66 24.94 11 28 C9.68 27.67 8.36 27.34 7 27 C6.67 23.37 6.34 19.74 6 16 C5.34 16 4.68 16 4 16 C3.89042969 15.41992188 3.78085938 14.83984375 3.66796875 14.2421875 C2.6856635 9.40253723 1.45178089 5.34633884 -1 1 C-0.67 0.67 -0.34 0.34 0 0 Z " fill="#EE9456" transform="translate(146,54)"/>
<path d="M0 0 C0.33 0 0.66 0 1 0 C1 6.93 1 13.86 1 21 C10.9 21 20.8 21 31 21 C31 14.07 31 7.14 31 0 C31.66 0 32.32 0 33 0 C33.02887512 3.64581687 33.04675585 7.29160463 33.0625 10.9375 C33.07087891 11.97841797 33.07925781 13.01933594 33.08789062 14.09179688 C33.09111328 15.08115234 33.09433594 16.07050781 33.09765625 17.08984375 C33.10289307 18.00628662 33.10812988 18.92272949 33.11352539 19.86694336 C33 22 33 22 32 23 C29.62192202 23.01693598 27.27689337 22.97130138 24.90234375 22.87890625 C23.83905602 22.84348976 23.83905602 22.84348976 22.75428772 22.80735779 C20.48182979 22.73055354 18.20969843 22.64660225 15.9375 22.5625 C14.40040681 22.50929604 12.8632975 22.45655554 11.32617188 22.40429688 C7.55051353 22.27578986 3.77538102 22.13763307 0 22 C0 14.74 0 7.48 0 0 Z " fill="#F9D3B3" transform="translate(74,59)"/>
<path d="M0 0 C2 1 2 1 2.6328125 2.7578125 C4.25371002 10.55355774 4.19032148 18.06993814 4 26 C3.67 26 3.34 26 3 26 C3 22.04 3 18.08 3 14 C2.01 14 1.02 14 0 14 C0 19.28 0 24.56 0 30 C0.66 30.33 1.32 30.66 2 31 C1.34 31 0.68 31 0 31 C-0.66 32.32 -1.32 33.64 -2 35 C-3.5171481 31.96570379 -3.13161087 29.12154268 -3.125 25.75 C-3.12757813 24.44546875 -3.13015625 23.1409375 -3.1328125 21.796875 C-3.01490662 18.42615405 -2.64650434 15.30435553 -2 12 C-0.02 12.495 -0.02 12.495 2 13 C1.67 10.03 1.34 7.06 1 4 C0.34 4 -0.32 4 -1 4 C-0.67 2.68 -0.34 1.36 0 0 Z " fill="#E7742A" transform="translate(155,69)"/>
<path d="M0 0 C2.31 0.33 4.62 0.66 7 1 C6.154375 1.969375 5.30875 2.93875 4.4375 3.9375 C3.28840521 5.28890022 2.14278382 6.64325886 1 8 C0.43539062 8.66386719 -0.12921875 9.32773437 -0.7109375 10.01171875 C-5.78167477 16.21820939 -9.37946153 22.87997449 -13 30 C-13.66 30 -14.32 30 -15 30 C-15.33 30.66 -15.66 31.32 -16 32 C-15.3472935 27.83511087 -13.98778355 24.33387298 -12.25 20.5 C-11.76015625 19.3965625 -11.2703125 18.293125 -10.765625 17.15625 C-8.16444965 12.50636131 -4.9854007 9.03108917 0 7 C0 4.69 0 2.38 0 0 Z " fill="#DB9059" transform="translate(35,33)"/>
<path d="M0 0 C3.41158256 1.13719419 4.11854601 2.04342944 6 5 C6 5.66 6 6.32 6 7 C6.66 7.33 7.32 7.66 8 8 C11.31411786 12.95908147 12.49196648 17.09640219 12 23 C12.66 23 13.32 23 14 23 C14 23.66 14 24.32 14 25 C13.34 25 12.68 25 12 25 C12 27.31 12 29.62 12 32 C10.68 32 9.36 32 8 32 C8.66 28.04 9.32 24.08 10 20 C9.34 20 8.68 20 8 20 C8 17.36 8 14.72 8 12 C7.34 12 6.68 12 6 12 C5.731875 11.236875 5.46375 10.47375 5.1875 9.6875 C4.19741865 7.00940089 4.19741865 7.00940089 2.4375 5.4375 C0.70553268 3.70553268 0.41012318 2.37871446 0 0 Z " fill="#E77227" transform="translate(138,47)"/>
<path d="M0 0 C-0.33 0.99 -0.66 1.98 -1 3 C-5.62 3.33 -10.24 3.66 -15 4 C-15 4.66 -15 5.32 -15 6 C-17.31 6 -19.62 6 -22 6 C-22 6.66 -22 7.32 -22 8 C-26.455 8.495 -26.455 8.495 -31 9 C-28.53402206 5.30103309 -25.16005837 2.69884241 -20.875 1.3125 C-20.25625 1.209375 -19.6375 1.10625 -19 1 C-18.67 1.33 -18.34 1.66 -18 2 C-15.90908661 1.74306573 -13.82631848 1.41863983 -11.75 1.0625 C-7.77127451 0.38287608 -4.03913373 -0.12907006 0 0 Z " fill="#E9925A" transform="translate(90,22)"/>
<path d="M0 0 C2.97 0 5.94 0 9 0 C9 0.66 9 1.32 9 2 C8.030625 2.12375 7.06125 2.2475 6.0625 2.375 C5.051875 2.58125 4.04125 2.7875 3 3 C1.47943501 6.04112998 1.6258839 9.28197797 1.4375 12.625 C1.293125 15.05875 1.14875 17.4925 1 20 C10.24 20 19.48 20 29 20 C29 13.73 29 7.46 29 1 C29.33 1 29.66 1 30 1 C30 7.6 30 14.2 30 21 C20.1 21 10.2 21 0 21 C0 14.07 0 7.14 0 0 Z " fill="#C66223" transform="translate(75,59)"/>
<path d="M0 0 C2.97 0 5.94 0 9 0 C9 20.46 9 40.92 9 62 C6.36 62 3.72 62 1 62 C1 61.67 1 61.34 1 61 C3.31 61 5.62 61 8 61 C8 41.53 8 22.06 8 2 C5.69 2.66 3.38 3.32 1 4 C0.67 2.68 0.34 1.36 0 0 Z " fill="#C8682B" transform="translate(50,59)"/>
<path d="M0 0 C0.70602859 0.02361099 1.41205719 0.04722198 2.13948059 0.07154846 C4.39137632 0.1480357 6.64291512 0.23212372 8.89453125 0.31640625 C10.42250866 0.36964193 11.95050341 0.42238224 13.47851562 0.47460938 C17.2215796 0.60363049 20.96434144 0.73946837 24.70703125 0.87890625 C25.20203125 1.86890625 25.20203125 1.86890625 25.70703125 2.87890625 C14.48703125 2.87890625 3.26703125 2.87890625 -8.29296875 2.87890625 C-8.29296875 6.50890625 -8.29296875 10.13890625 -8.29296875 13.87890625 C-8.62296875 13.87890625 -8.95296875 13.87890625 -9.29296875 13.87890625 C-9.62296875 9.58890625 -9.95296875 5.29890625 -10.29296875 0.87890625 C-6.75214735 -0.30136755 -3.66941502 -0.14493235 0 0 Z " fill="#D57030" transform="translate(58.29296875,44.12109375)"/>
<path d="M0 0 C2.02868239 2.28226769 2.95627359 3.54087269 3.25 6.625 C3 9 3 9 2 11 C1.34 11 0.68 11 0 11 C0.16371094 11.78632812 0.32742187 12.57265625 0.49609375 13.3828125 C1.12655771 17.90846849 1.10715524 22.31329568 1.0625 26.875 C1.05798828 27.75414063 1.05347656 28.63328125 1.04882812 29.5390625 C1.03712337 31.69273803 1.01919069 33.84637817 1 36 C-1.65224404 33.34775596 -1.38092023 31.82360236 -1.6328125 28.1171875 C-1.71660156 26.95058594 -1.80039062 25.78398438 -1.88671875 24.58203125 C-1.96535156 23.35871094 -2.04398438 22.13539062 -2.125 20.875 C-2.21136719 19.64394531 -2.29773438 18.41289063 -2.38671875 17.14453125 C-2.59934963 14.096822 -2.80340654 11.04877896 -3 8 C-2.34 7.67 -1.68 7.34 -1 7 C-0.59270772 4.67843403 -0.25561323 2.3431213 0 0 Z " fill="#E77428" transform="translate(27,71)"/>
<path d="M0 0 C3 1 3 1 4.5 2.5625 C6.01472806 4.34595268 6.01472806 4.34595268 9 4 C11.1875 6 11.1875 6 13 8 C12.67 8.66 12.34 9.32 12 10 C11.34 9.67 10.68 9.34 10 9 C12.34551525 11.41066845 14.59155534 13.70194579 17.3125 15.6875 C17.869375 16.120625 18.42625 16.55375 19 17 C19 17.66 19 18.32 19 19 C20.32 19.66 21.64 20.32 23 21 C22.34 21.33 21.68 21.66 21 22 C12.40303736 16.44302795 5.92691662 10.35682386 0 2 C0 1.34 0 0.68 0 0 Z " fill="#DF844B" transform="translate(32,127)"/>
<path d="M0 0 C2.97 0 5.94 0 9 0 C9 0.33 9 0.66 9 1 C6.36 1 3.72 1 1 1 C1 4.3 1 7.6 1 11 C11.56 11 22.12 11 33 11 C32.505 9.02 32.505 9.02 32 7 C32 5.68 32 4.36 32 3 C29.69 2.67 27.38 2.34 25 2 C25 1.34 25 0.68 25 0 C27.97 0 30.94 0 34 0 C34 3.96 34 7.92 34 12 C22.78 12 11.56 12 0 12 C0 8.04 0 4.08 0 0 Z " fill="#FEE6CC" transform="translate(96,121)"/>
<path d="M0 0 C0.33 0 0.66 0 1 0 C1.12591815 7.30325289 1.12591815 7.30325289 0.53125 10.59375 C-0.20918199 15.34122567 -0.36426374 20.07833244 -0.5625 24.875 C-0.60568359 25.84953125 -0.64886719 26.8240625 -0.69335938 27.828125 C-0.79882274 30.21862802 -0.90094175 32.60922444 -1 35 C-1.33 35 -1.66 35 -2 35 C-2 33.35 -2 31.7 -2 30 C-2.66 30 -3.32 30 -4 30 C-4.47765748 20.65914258 -4.29957904 8.59915807 0 0 Z " fill="#E39558" transform="translate(18,66)"/>
<path d="M0 0 C11.22 0 22.44 0 34 0 C34.495 2.475 34.495 2.475 35 5 C34.34 5.33 33.68 5.66 33 6 C32.34 5.01 31.68 4.02 31 3 C27.7998894 2.48745872 27.7998894 2.48745872 24.0234375 2.48828125 C22.99556625 2.46135445 22.99556625 2.46135445 21.94692993 2.43388367 C19.75634941 2.37966292 17.5659881 2.34584947 15.375 2.3125 C13.89059441 2.27933706 12.40621779 2.24484835 10.921875 2.20898438 C7.28146088 2.12393185 3.64097056 2.05717644 0 2 C0 1.34 0 0.68 0 0 Z " fill="#F27217" transform="translate(96,136)"/>
<path d="M0 0 C1.15371094 -0.01224609 2.30742188 -0.02449219 3.49609375 -0.03710938 C5.15318359 -0.04000977 5.15318359 -0.04000977 6.84375 -0.04296875 C8.36258789 -0.04913208 8.36258789 -0.04913208 9.91210938 -0.05541992 C12.5 0.1875 12.5 0.1875 15.5 2.1875 C14.53175293 2.22508423 14.53175293 2.22508423 13.54394531 2.26342773 C10.61244106 2.37964433 7.68123783 2.50225442 4.75 2.625 C3.73421875 2.66431641 2.7184375 2.70363281 1.671875 2.74414062 C0.6921875 2.78603516 -0.2875 2.82792969 -1.296875 2.87109375 C-2.19760742 2.90775146 -3.09833984 2.94440918 -4.02636719 2.98217773 C-6.30105927 3.17098706 -8.30306753 3.59674818 -10.5 4.1875 C-11.91534778 4.25206879 -13.33337689 4.27361039 -14.75 4.25 C-16.60625 4.2190625 -16.60625 4.2190625 -18.5 4.1875 C-13.50144738 -1.28710525 -6.90838765 0.00385943 0 0 Z " fill="#FDF7F0" transform="translate(88.5,17.8125)"/>
<path d="M0 0 C1.32 0 2.64 0 4 0 C4 3.63 4 7.26 4 11 C6.97 11 9.94 11 13 11 C12.34 12.32 11.68 13.64 11 15 C10.401875 14.835 9.80375 14.67 9.1875 14.5 C6.88655664 13.8885876 6.88655664 13.8885876 4 14 C4 13.34 4 12.68 4 12 C3.34 12 2.68 12 2 12 C1.67 13.32 1.34 14.64 1 16 C0.67 16 0.34 16 0 16 C0 10.72 0 5.44 0 0 Z " fill="#E36F24" transform="translate(92,48)"/>
<path d="M0 0 C0.33 0.66 0.66 1.32 1 2 C0.67 2.66 0.34 3.32 0 4 C-0.99 4.33 -1.98 4.66 -3 5 C-3.515625 5.515625 -4.03125 6.03125 -4.5625 6.5625 C-5.036875 7.036875 -5.51125 7.51125 -6 8 C-6.66 8 -7.32 8 -8 8 C-8 9.32 -8 10.64 -8 12 C-7.01 12.33 -6.02 12.66 -5 13 C-8 14 -8 14 -10.1875 13.3125 C-13.91284432 12.89857285 -15.84171622 14.18362542 -19.03515625 15.9921875 C-21.01728198 17.00886432 -22.82680384 17.54503243 -25 18 C-23.99918125 15.31803067 -23.38412382 14.20582979 -20.8203125 12.83203125 C-19.93085937 12.49558594 -19.04140625 12.15914062 -18.125 11.8125 C-11.2148488 8.90199923 -5.82036159 4.66238389 0 0 Z " fill="#E6732B" transform="translate(141,146)"/>
<path d="M0 0 C0.66 0 1.32 0 2 0 C2.125 7.75 2.125 7.75 1 10 C0.84733388 11.73868744 0.75067404 13.48247501 0.68359375 15.2265625 C0.64169922 16.2578125 0.59980469 17.2890625 0.55664062 18.3515625 C0.49766602 19.97191406 0.49766602 19.97191406 0.4375 21.625 C0.39431641 22.71296875 0.35113281 23.8009375 0.30664062 24.921875 C0.2003547 27.6144517 0.09831943 30.30712253 0 33 C-0.33 33 -0.66 33 -1 33 C-2.25792211 27.14311463 -2.18376571 21.33491924 -2.1875 15.375 C-2.19974609 14.33859375 -2.21199219 13.3021875 -2.22460938 12.234375 C-2.22654297 11.23664063 -2.22847656 10.23890625 -2.23046875 9.2109375 C-2.23457764 8.30649902 -2.23868652 7.40206055 -2.24291992 6.47021484 C-1.98703045 3.86811462 -1.3168975 2.23712734 0 0 Z " fill="#FBFAFA" transform="translate(20,70)"/>
<path d="M0 0 C2.97 0 5.94 0 9 0 C9 0.33 9 0.66 9 1 C6.36 1 3.72 1 1 1 C1.66 3.97 2.32 6.94 3 10 C12.9 10 22.8 10 33 10 C33 10.66 33 11.32 33 12 C22.11 12 11.22 12 0 12 C0 8.04 0 4.08 0 0 Z " fill="#FDEDCE" transform="translate(50,121)"/>
<path d="M0 0 C0.66 0 1.32 0 2 0 C1.2531799 4.42083165 -0.11710006 8.58156741 -1.5625 12.8125 C-1.79646484 13.50537109 -2.03042969 14.19824219 -2.27148438 14.91210938 C-2.84491676 16.60900114 -3.42208169 18.30463078 -4 20 C-4.66 20 -5.32 20 -6 20 C-7.25667478 13.60238292 -6.9845986 9.86628001 -4 4 C-1.88671875 3.27734375 -1.88671875 3.27734375 0 3 C0 2.01 0 1.02 0 0 Z " fill="#E48E56" transform="translate(30,58)"/>
<path d="M0 0 C-1.65 0.33 -3.3 0.66 -5 1 C-5 2.32 -5 3.64 -5 5 C-6.43640171 5.19573608 -7.87419504 5.38127816 -9.3125 5.5625 C-10.11300781 5.66691406 -10.91351563 5.77132812 -11.73828125 5.87890625 C-14 6 -14 6 -17 5 C-19.73289293 4.77202438 -22.45042204 4.58331813 -25.1875 4.4375 C-25.93708984 4.39431641 -26.68667969 4.35113281 -27.45898438 4.30664062 C-29.30578375 4.20077315 -31.15286834 4.0999024 -33 4 C-33 3.67 -33 3.34 -33 3 C-31.74445313 2.96261719 -30.48890625 2.92523438 -29.1953125 2.88671875 C-17.32210665 2.5570055 -17.32210665 2.5570055 -5.91015625 -0.4765625 C-3.60312312 -1.10875563 -2.23981674 -0.75161636 0 0 Z " fill="#FBDCBA" transform="translate(116,156)"/>
<path d="M0 0 C-1 3 -1 3 -2.875 4.1875 C-5 5 -5 5 -8 5 C-8 5.66 -8 6.32 -8 7 C-12.41225737 8.47075246 -15.48281619 9.36884358 -20 8 C-20 7.01 -20 6.02 -20 5 C-18.95199219 4.72285156 -17.90398437 4.44570312 -16.82421875 4.16015625 C-15.44529933 3.79432048 -14.0663938 3.42843233 -12.6875 3.0625 C-11.65206055 2.78889648 -11.65206055 2.78889648 -10.59570312 2.50976562 C-1.14985795 0 -1.14985795 0 0 0 Z " fill="#D47B45" transform="translate(120,149)"/>
<path d="M0 0 C0.66 0 1.32 0 2 0 C2.33 1.32 2.66 2.64 3 4 C8.94 4 14.88 4 21 4 C17.63541082 6.24305946 16.46483729 6.25653373 12.52734375 6.265625 C11.46322266 6.26820313 10.39910156 6.27078125 9.30273438 6.2734375 C8.19220703 6.26570312 7.08167969 6.25796875 5.9375 6.25 C4.82310547 6.25773438 3.70871094 6.26546875 2.56054688 6.2734375 C1.49771484 6.27085937 0.43488281 6.26828125 -0.66015625 6.265625 C-1.63605713 6.26336914 -2.61195801 6.26111328 -3.61743164 6.25878906 C-6 6 -6 6 -8 4 C-4.71303767 3.20046862 -3.28976808 2.90341064 0 4 C-0.33 3.01 -0.66 2.02 -1 1 C-0.67 0.67 -0.34 0.34 0 0 Z " fill="#D2753A" transform="translate(84,153)"/>
<path d="M0 0 C0.80824219 0.40992188 1.61648437 0.81984375 2.44921875 1.2421875 C4.05216797 2.05042969 4.05216797 2.05042969 5.6875 2.875 C6.74324219 3.40867188 7.79898438 3.94234375 8.88671875 4.4921875 C13.4284738 6.69183298 17.13003897 8.20289233 22.1875 8.5625 C26.80316344 8.90158172 26.80316344 8.90158172 29 10 C29 10.66 29 11.32 29 12 C25.37 12.33 21.74 12.66 18 13 C18.33 12.01 18.66 11.02 19 10 C17.576875 9.9071875 17.576875 9.9071875 16.125 9.8125 C11.0157988 9.08112151 6.25355958 6.8849554 2 4 C0.70703125 1.83203125 0.70703125 1.83203125 0 0 Z " fill="#F9A05E" transform="translate(55,145)"/>
<path d="M0 0 C1 3 1 3 -0.3359375 6.00390625 C-1.00088867 7.1984273 -1.68162495 8.3842506 -2.375 9.5625 C-2.91386841 10.4898999 -2.91386841 10.4898999 -3.46362305 11.43603516 C-6.91118778 17.1762861 -10.88857161 22.62453665 -16 27 C-16.99 27 -17.98 27 -19 27 C-19 26.34 -19 25.68 -19 25 C-18.34 25 -17.68 25 -17 25 C-16.731875 24.360625 -16.46375 23.72125 -16.1875 23.0625 C-15 21 -15 21 -12 20 C-12 19.34 -12 18.68 -12 18 C-11.34 18 -10.68 18 -10 18 C-10 17.34 -10 16.68 -10 16 C-9.34 16 -8.68 16 -8 16 C-7.67 14.02 -7.34 12.04 -7 10 C-6.34 10 -5.68 10 -5 10 C-5 9.34 -5 8.68 -5 8 C-4.34 8 -3.68 8 -3 8 C-2.690625 7.05125 -2.38125 6.1025 -2.0625 5.125 C-1 2 -1 2 0 0 Z " fill="#D27644" transform="translate(153,115)"/>
<path d="M0 0 C1.24040039 0.01353516 1.24040039 0.01353516 2.50585938 0.02734375 C4.52486708 0.05068488 6.54372356 0.08654712 8.5625 0.125 C7.5725 0.785 6.5825 1.445 5.5625 2.125 C4.9025 1.795 4.2425 1.465 3.5625 1.125 C3.5625 2.115 3.5625 3.105 3.5625 4.125 C6.5325 4.125 9.5025 4.125 12.5625 4.125 C12.5625 4.455 12.5625 4.785 12.5625 5.125 C5.9625 5.125 -0.6375 5.125 -7.4375 5.125 C-7.4375 4.795 -7.4375 4.465 -7.4375 4.125 C-6.48037109 4.05152344 -6.48037109 4.05152344 -5.50390625 3.9765625 C-4.67761719 3.90179687 -3.85132812 3.82703125 -3 3.75 C-1.76443359 3.64558594 -1.76443359 3.64558594 -0.50390625 3.5390625 C0.17800781 3.40242188 0.85992187 3.26578125 1.5625 3.125 C1.8925 2.465 2.2225 1.805 2.5625 1.125 C1.9334375 1.269375 1.304375 1.41375 0.65625 1.5625 C-4.84316619 2.75514447 -9.81416943 3.3332715 -15.4375 3.125 C-15.7675 3.785 -16.0975 4.445 -16.4375 5.125 C-16.4375 4.135 -16.4375 3.145 -16.4375 2.125 C-10.81492839 0.2080427 -5.91380615 -0.12389924 0 0 Z " fill="#D47B3C" transform="translate(87.4375,20.875)"/>
<path d="M0 0 C0.92425781 -0.01224609 1.84851563 -0.02449219 2.80078125 -0.03710938 C4.13302734 -0.04000977 4.13302734 -0.04000977 5.4921875 -0.04296875 C6.30800293 -0.04707764 7.12381836 -0.05118652 7.96435547 -0.05541992 C10.125 0.1875 10.125 0.1875 13.125 2.1875 C10.90002688 4.41247312 5.80010941 3.37281128 2.8125 3.375 C1.51022461 3.39336914 1.51022461 3.39336914 0.18164062 3.41210938 C-0.65818359 3.41404297 -1.49800781 3.41597656 -2.36328125 3.41796875 C-3.13196533 3.42207764 -3.90064941 3.42618652 -4.69262695 3.43041992 C-7.13216738 3.1588747 -8.75909011 2.40135935 -10.875 1.1875 C-8.58214814 -1.10535186 -3.07916207 0.00212943 0 0 Z " fill="#FEF8EA" transform="translate(88.875,159.8125)"/>
<path d="M0 0 C5.875 0.875 5.875 0.875 7 2 C7.33 1.34 7.66 0.68 8 0 C9.32 0.66 10.64 1.32 12 2 C11.67 2.33 11.34 2.66 11 3 C11.99 3.33 12.98 3.66 14 4 C14 4.66 14 5.32 14 6 C15.65 6.33 17.3 6.66 19 7 C19 7.66 19 8.32 19 9 C16.03 8.505 16.03 8.505 13 8 C13 7.34 13 6.68 13 6 C12.154375 5.896875 11.30875 5.79375 10.4375 5.6875 C6.58557299 4.9171146 3.55924969 3.63725486 0 2 C0 1.34 0 0.68 0 0 Z " fill="#F29C63" transform="translate(109,26)"/>
<path d="M0 0 C5.28 0 10.56 0 16 0 C16 0.99 16 1.98 16 3 C10.72 3 5.44 3 0 3 C0 2.01 0 1.02 0 0 Z " fill="#F66D19" transform="translate(112,42)"/>
<path d="M0 0 C-0.5653911 3.50695293 -1.68722726 5.02732613 -4.375 7.3125 C-4.98085938 7.84488281 -5.58671875 8.37726562 -6.2109375 8.92578125 C-6.80132812 9.28027344 -7.39171875 9.63476562 -8 10 C-8.99 9.67 -9.98 9.34 -11 9 C-5.4 0 -5.4 0 0 0 Z " fill="#FCEFE4" transform="translate(48,32)"/>
<path d="M0 0 C2 1 2 1 2.6328125 2.7578125 C4.25371002 10.55355774 4.19032148 18.06993814 4 26 C3.67 26 3.34 26 3 26 C3 22.04 3 18.08 3 14 C1.35 14 -0.3 14 -2 14 C-1.67 13.34 -1.34 12.68 -1 12 C-0.01 12.33 0.98 12.66 2 13 C1.67 10.03 1.34 7.06 1 4 C0.34 4 -0.32 4 -1 4 C-0.67 2.68 -0.34 1.36 0 0 Z " fill="#C46F33" transform="translate(155,69)"/>
<path d="M0 0 C0.33 0 0.66 0 1 0 C1 7.26 1 14.52 1 22 C0.34 22.33 -0.32 22.66 -1 23 C-2.89320388 5.78640777 -2.89320388 5.78640777 0 0 Z " fill="#F99C5A" transform="translate(24,79)"/>
<path d="M0 0 C0.66 0 1.32 0 2 0 C2 1.32 2 2.64 2 4 C2.99 3.34 3.98 2.68 5 2 C3.50829734 6.9723422 1.39542583 11.41845739 -1 16 C-1.33 16 -1.66 16 -2 16 C-2.05423638 14.08364783 -2.09289963 12.16685075 -2.125 10.25 C-2.14820312 9.18265625 -2.17140625 8.1153125 -2.1953125 7.015625 C-2.00487687 4.07529894 -1.52670104 2.47638122 0 0 Z " fill="#E26D20" transform="translate(20,48)"/>
<path d="M0 0 C0.66 0 1.32 0 2 0 C1.88487847 1.72985242 1.75744323 3.45888751 1.625 5.1875 C1.55539063 6.15042969 1.48578125 7.11335938 1.4140625 8.10546875 C0.99784147 11.01508938 0.20125904 13.32890774 -1 16 C-1.66 16 -2.32 16 -3 16 C-3 17.32 -3 18.64 -3 20 C-3.99 20.33 -4.98 20.66 -6 21 C-6 20.34 -6 19.68 -6 19 C-5.34 19 -4.68 19 -4 19 C-3.896875 18.0925 -3.79375 17.185 -3.6875 16.25 C-2.91456832 10.73717848 -1.40432909 5.37884538 0 0 Z " fill="#E27430" transform="translate(164,104)"/>
<path d="M0 0 C2.31 0 4.62 0 7 0 C6.67 0.99 6.34 1.98 6 3 C5.34 3 4.68 3 4 3 C4 3.66 4 4.32 4 5 C-0.09517597 9.22315022 -3.37568927 9.6186908 -9 10 C-5.80331012 7.3513141 -2.60513403 5.06007659 1 3 C0.67 2.01 0.34 1.02 0 0 Z " fill="#E3742D" transform="translate(57,30)"/>
<path d="M0 0 C0.66 0 1.32 0 2 0 C2 0.99 2 1.98 2 3 C1.34 3 0.68 3 0 3 C-0.99 6.96 -1.98 10.92 -3 15 C-3.66 15 -4.32 15 -5 15 C-4.67 16.65 -4.34 18.3 -4 20 C-5.98 20.99 -5.98 20.99 -8 22 C-7.31881683 18.2187383 -6.3257494 14.64878888 -5.125 11 C-4.79757813 9.989375 -4.47015625 8.97875 -4.1328125 7.9375 C-3.01068546 5.02770849 -1.79203473 2.55200757 0 0 Z " fill="#F18B4A" transform="translate(36,49)"/>
<path d="M0 0 C0.99 0 1.98 0 3 0 C3.02725341 1.7290774 3.04650987 3.45828176 3.0625 5.1875 C3.07410156 6.15042969 3.08570313 7.11335938 3.09765625 8.10546875 C3.00486622 10.85576513 2.62111685 13.32479591 2 16 C1.34 16 0.68 16 0 16 C0 10.72 0 5.44 0 0 Z " fill="#F39759" transform="translate(155,83)"/>
<path d="M0 0 C3.41158256 1.13719419 4.11854601 2.04342944 6 5 C6 5.66 6 6.32 6 7 C6.66 7.33 7.32 7.66 8 8 C9.0703125 10.06640625 9.0703125 10.06640625 10.125 12.5625 C10.47820312 13.38878906 10.83140625 14.21507812 11.1953125 15.06640625 C11.46085938 15.70449219 11.72640625 16.34257813 12 17 C11.01 16.67 10.02 16.34 9 16 C8.3125 13.9375 8.3125 13.9375 8 12 C7.34 12 6.68 12 6 12 C5.731875 11.236875 5.46375 10.47375 5.1875 9.6875 C4.19741865 7.00940089 4.19741865 7.00940089 2.4375 5.4375 C0.70553268 3.70553268 0.41012318 2.37871446 0 0 Z " fill="#E07A30" transform="translate(138,47)"/>
<path d="M0 0 C2.97 0 5.94 0 9 0 C9 0.66 9 1.32 9 2 C8.030625 2.12375 7.06125 2.2475 6.0625 2.375 C5.051875 2.58125 4.04125 2.7875 3 3 C1.414131 6.171738 1.62133555 9.63513822 1.4375 13.125 C1.39431641 13.87910156 1.35113281 14.63320312 1.30664062 15.41015625 C1.2005168 17.27321888 1.09974999 19.13658524 1 21 C0.67 21 0.34 21 0 21 C0 14.07 0 7.14 0 0 Z " fill="#CF763F" transform="translate(75,59)"/>
<path d="M0 0 C4.41261532 1.20344054 7.04083882 2.47176936 10 6 C10 6.33 10 6.66 10 7 C5.44262737 6.56179109 2.42346555 6.14958831 -1 3 C-0.67 2.01 -0.34 1.02 0 0 Z " fill="#FCF4E0" transform="translate(119,23)"/>
<path d="M0 0 C-6.24161903 3.58125682 -10.75420281 5.67090715 -18 5 C-15.17770487 3.11846991 -12.72109829 1.99965295 -9.5625 0.8125 C-8.61503906 0.44769531 -7.66757813 0.08289063 -6.69140625 -0.29296875 C-3.92916783 -1.01860758 -2.63633262 -0.97849698 0 0 Z " fill="#E09B69" transform="translate(126,157)"/>
<path d="M0 0 C3.89304473 0.56601005 6.49542487 1.6798 9.75 3.875 C10.52859375 4.38804687 11.3071875 4.90109375 12.109375 5.4296875 C14 7 14 7 15 10 C11.43574301 8.68552225 8.40275366 7.11594205 5.25 5 C4.47140625 4.484375 3.6928125 3.96875 2.890625 3.4375 C1 2 1 2 0 0 Z " fill="#DC9B6B" transform="translate(42,148)"/>
<path d="M0 0 C0.66 0 1.32 0 2 0 C2.65043719 1.72744016 3.29514844 3.4570369 3.9375 5.1875 C4.47697266 6.63189453 4.47697266 6.63189453 5.02734375 8.10546875 C5.91156562 10.7368278 6.52568586 13.26894908 7 16 C6.34 16 5.68 16 5 16 C4.67 14.02 4.34 12.04 4 10 C3.34 10 2.68 10 2 10 C2 9.01 2 8.02 2 7 C1.01 6.67 0.02 6.34 -1 6 C-0.67 5.01 -0.34 4.02 0 3 C0 2.01 0 1.02 0 0 Z " fill="#EEA160" transform="translate(24,103)"/>
<path d="M0 0 C-5.625 3 -5.625 3 -9 3 C-9 3.99 -9 4.98 -9 6 C-9.7425 6.28875 -10.485 6.5775 -11.25 6.875 C-13.56739797 7.82302644 -15.77917115 8.84845911 -18 10 C-16.52567422 6.13827168 -14.54701627 4.81800775 -11 2.8125 C-10.113125 2.30332031 -9.22625 1.79414063 -8.3125 1.26953125 C-4.85577678 -0.62816308 -3.79428398 -1.13828519 0 0 Z " fill="#CA7849" transform="translate(66,27)"/>
<path d="M0 0 C0.66 0.33 1.32 0.66 2 1 C1.67 1.66 1.34 2.32 1 3 C0.34 3 -0.32 3 -1 3 C-1 3.66 -1 4.32 -1 5 C-0.34 5.33 0.32 5.66 1 6 C0.4225 6.103125 -0.155 6.20625 -0.75 6.3125 C-3.11051916 6.88521263 -3.11051916 6.88521263 -5.0625 8.625 C-5.701875 9.07875 -6.34125 9.5325 -7 10 C-7.99 9.67 -8.98 9.34 -10 9 C-8.74617472 6.49234943 -7.26048976 5.58039166 -5 3.9375 C-2.39307117 2.09476009 -2.39307117 2.09476009 0 0 Z " fill="#F29C61" transform="translate(135,137)"/>
<path d="M0 0 C0.33 0 0.66 0 1 0 C1.75 2.75 1.75 2.75 2 6 C0.4375 8.375 0.4375 8.375 -2 10 C-5.25 10.25 -5.25 10.25 -8 10 C-8.33 10.99 -8.66 11.98 -9 13 C-9 11.02 -9 9.04 -9 7 C-6.36 6.67 -3.72 6.34 -1 6 C-0.67 4.02 -0.34 2.04 0 0 Z " fill="#FEF9EC" transform="translate(60,115)"/>
<path d="M0 0 C0.33 0 0.66 0 1 0 C1 1.65 1 3.3 1 5 C1.66 5 2.32 5 3 5 C3.39012425 6.76756294 3.7616098 8.53924783 4.125 10.3125 C4.33382813 11.29863281 4.54265625 12.28476563 4.7578125 13.30078125 C5 16 5 16 3 19 C0.99134292 12.49577707 -0.38614349 6.8218683 0 0 Z " fill="#DF925F" transform="translate(15,96)"/>
<path d="M0 0 C2.39591038 -0.02712351 4.79150957 -0.0468982 7.1875 -0.0625 C7.86103516 -0.07087891 8.53457031 -0.07925781 9.22851562 -0.08789062 C12.95434131 -0.10606538 16.3788042 0.10700608 20 1 C20 1.33 20 1.66 20 2 C15.64667264 2.84023188 11.55557481 3.10770995 7.125 3.0625 C5.97257812 3.05347656 4.82015625 3.04445313 3.6328125 3.03515625 C2.76398438 3.02355469 1.89515625 3.01195312 1 3 C0.67 2.01 0.34 1.02 0 0 Z " fill="#F2AD73" transform="translate(84,14)"/>
<path d="M0 0 C0.99 0.33 1.98 0.66 3 1 C2.855625 1.84304687 2.71125 2.68609375 2.5625 3.5546875 C2.376875 4.65039062 2.19125 5.74609375 2 6.875 C1.814375 7.96554688 1.62875 9.05609375 1.4375 10.1796875 C0.94890292 12.85371964 0.94890292 12.85371964 1 15 C0.34 15 -0.32 15 -1 15 C-2.18609365 9.3067505 -1.66251802 5.57432514 0 0 Z " fill="#F86C18" transform="translate(134,120)"/>
<path d="M0 0 C0.83583327 2.37607949 1.1842383 3.54449627 0.22265625 5.921875 C-0.8515625 7.61458333 -1.92578125 9.30729167 -3 11 C-3.66 11 -4.32 11 -5 11 C-5 11.99 -5 12.98 -5 14 C-5.66 14 -6.32 14 -7 14 C-7.33 14.66 -7.66 15.32 -8 16 C-7.43555175 11.65136348 -5.84572036 8.82172345 -3.4375 5.1875 C-2.79683594 4.21167969 -2.15617187 3.23585937 -1.49609375 2.23046875 C-0.75552734 1.12638672 -0.75552734 1.12638672 0 0 Z " fill="#CB7C4F" transform="translate(35,47)"/>
<path d="M0 0 C0.66 1.32 1.32 2.64 2 4 C-3.29230769 8.06153846 -3.29230769 8.06153846 -6.875 7.75 C-7.57625 7.5025 -8.2775 7.255 -9 7 C-6.3765992 4.08511023 -3.28183606 2.11496102 0 0 Z " fill="#FCEBCF" transform="translate(135,143)"/>
<path d="M0 0 C0.33 0.66 0.66 1.32 1 2 C1.66 2 2.32 2 3 2 C3.33 1.34 3.66 0.68 4 0 C5.54519424 4.63558271 6 9.12493323 6 14 C4.21178226 11.31767339 2.79857396 8.69711039 1.375 5.8125 C0.92898437 4.91144531 0.48296875 4.01039062 0.0234375 3.08203125 C-0.31429687 2.39496094 -0.65203125 1.70789062 -1 1 C-0.67 0.67 -0.34 0.34 0 0 Z " fill="#F49855" transform="translate(146,54)"/>
<path d="M0 0 C3.78671666 1.54950705 6.06455913 3.88289637 8.8125 6.875 C9.62332031 7.73867188 10.43414062 8.60234375 11.26953125 9.4921875 C13 12 13 12 12.76171875 14.3203125 C12.51035156 14.87460937 12.25898438 15.42890625 12 16 C10.05652243 14.3215421 9.07173303 13.2151991 8.25 10.75 C6.63708221 7.20158086 4.27792279 5.0976418 1.4609375 2.453125 C0.97882813 1.97359375 0.49671875 1.4940625 0 1 C0 0.67 0 0.34 0 0 Z " fill="#EDA474" transform="translate(138,32)"/>
<path d="M0 0 C3.63 0.66 7.26 1.32 11 2 C9.02 2.99 9.02 2.99 7 4 C7.99 4.66 8.98 5.32 10 6 C8.39504433 5.88557539 6.79101881 5.75805306 5.1875 5.625 C4.29417969 5.55539063 3.40085937 5.48578125 2.48046875 5.4140625 C0 5 0 5 -3 3 C-1.02 3 0.96 3 3 3 C2.01 2.67 1.02 2.34 0 2 C0 1.34 0 0.68 0 0 Z " fill="#FDE8CD" transform="translate(72,157)"/>
<path d="M0 0 C0.33 0 0.66 0 1 0 C0.85831863 1.43791516 0.71148957 2.8753237 0.5625 4.3125 C0.48128906 5.11300781 0.40007812 5.91351563 0.31640625 6.73828125 C0 9 0 9 -1 12 C-1.66 12 -2.32 12 -3 12 C-3 8.37 -3 4.74 -3 1 C-2.01 1.495 -2.01 1.495 -1 2 C-0.67 1.34 -0.34 0.68 0 0 Z " fill="#FEF2DB" transform="translate(161,101)"/>
<path d="M0 0 C1.65 0.33 3.3 0.66 5 1 C5 1.66 5 2.32 5 3 C-1.625 6 -1.625 6 -5 6 C-5 5.01 -5 4.02 -5 3 C-3.35 2.67 -1.7 2.34 0 2 C0 1.34 0 0.68 0 0 Z " fill="#FCF4E9" transform="translate(116,154)"/>
<path d="M0 0 C2 2.5 2 2.5 4 5 C5.0828125 6.299375 5.0828125 6.299375 6.1875 7.625 C8 10 8 10 9 13 C7.68 12.67 6.36 12.34 5 12 C5 11.01 5 10.02 5 9 C4.360625 8.814375 3.72125 8.62875 3.0625 8.4375 C1 7 1 7 0.25 3.375 C0.1675 2.26125 0.085 1.1475 0 0 Z " fill="#E1732B" transform="translate(24,128)"/>
<path d="M0 0 C1.72071471 3.2389924 2.98797542 6.53566908 4.1875 10 C4.55230469 11.03125 4.91710937 12.0625 5.29296875 13.125 C5.99337963 15.97307959 6.01828944 17.30185728 5 20 C2.38158129 17.38158129 2.18149063 15.28412235 1.375 11.6875 C1.11460938 10.55699219 0.85421875 9.42648438 0.5859375 8.26171875 C0.0732561 5.40779229 -0.11914675 2.88660093 0 0 Z " fill="#DE702F" transform="translate(15,104)"/>
<path d="M0 0 C2.8125 0.1875 2.8125 0.1875 6 1 C7.5 3.1875 7.5 3.1875 9 6 C10.91290902 8.1056828 12.94103754 10.03254699 15 12 C14.67 12.66 14.34 13.32 14 14 C9.33333333 9.33333333 4.66666667 4.66666667 0 0 Z " fill="#C8875C" transform="translate(132,29)"/>
<path d="M0 0 C0.66 0.99 1.32 1.98 2 3 C1.01 4.485 1.01 4.485 0 6 C-0.66 6 -1.32 6 -2 6 C-2 6.66 -2 7.32 -2 8 C-2.66 8 -3.32 8 -4 8 C-4 8.66 -4 9.32 -4 10 C-5.98 10.99 -5.98 10.99 -8 12 C-6.50079488 8.88626628 -4.91847864 5.87771795 -3 3 C-2.34 3 -1.68 3 -1 3 C-0.67 2.01 -0.34 1.02 0 0 Z " fill="#F79D61" transform="translate(145,125)"/>
<path d="M0 0 C0.99 0.66 1.98 1.32 3 2 C1.75443908 2.81928886 0.50333365 3.63015186 -0.75 4.4375 C-1.44609375 4.88996094 -2.1421875 5.34242187 -2.859375 5.80859375 C-4.92957014 6.9608009 -6.68696324 7.54676982 -9 8 C-9.33 6.68 -9.66 5.36 -10 4 C-9.01 4.495 -9.01 4.495 -8 5 C-7.4225 4.505 -6.845 4.01 -6.25 3.5 C-4 2 -4 2 0 2 C0 1.34 0 0.68 0 0 Z " fill="#F7995B" transform="translate(57,31)"/>
<path d="M0 0 C7.8049778 6.22259874 7.8049778 6.22259874 10 11 C10 11.99 10 12.98 10 14 C9.34 14 8.68 14 8 14 C7.4121875 12.700625 7.4121875 12.700625 6.8125 11.375 C5.40112238 8.74691753 4.21982946 6.94993114 2.3125 4.75 C0 2 0 2 0 0 Z " fill="#D57634" transform="translate(139,42)"/>
<path d="M0 0 C4.29926263 1.59231949 6.35005733 4.39313359 9 8 C9 8.99 9 9.98 9 11 C8.34 11 7.68 11 7 11 C4 7.53846154 4 7.53846154 4 5 C3.01 4.67 2.02 4.34 1 4 C0.3125 1.9375 0.3125 1.9375 0 0 Z " fill="#F59D60" transform="translate(137,43)"/>
<path d="M0 0 C-0.33 0.99 -0.66 1.98 -1 3 C-1.66 3 -2.32 3 -3 3 C-3 3.99 -3 4.98 -3 6 C-3.66 6 -4.32 6 -5 6 C-5 6.66 -5 7.32 -5 8 C-6.98 8.99 -6.98 8.99 -9 10 C-9.33 9.01 -9.66 8.02 -10 7 C-9.34 7 -8.68 7 -8 7 C-8 6.34 -8 5.68 -8 5 C-2.52380952 0 -2.52380952 0 0 0 Z " fill="#F89B5A" transform="translate(48,39)"/>
<path d="M0 0 C11.52164009 -0.3690205 11.52164009 -0.3690205 17 2 C17 2.33 17 2.66 17 3 C10.9981863 3.21824777 5.80766296 2.5056904 0 1 C0 0.67 0 0.34 0 0 Z " fill="#E1915B" transform="translate(98,16)"/>
<path d="M0 0 C4.61812374 5.77265468 4.45457655 6.29499583 4 13 C3.01 13.495 3.01 13.495 2 14 C1.34 9.38 0.68 4.76 0 0 Z " fill="#F07515" transform="translate(138,49)"/>
<path d="M0 0 C4.62 0.66 9.24 1.32 14 2 C13.67 2.99 13.34 3.98 13 5 C8.71 4.34 4.42 3.68 0 3 C0 2.01 0 1.02 0 0 Z " fill="#F4A260" transform="translate(91,22)"/>
<path d="M0 0 C-0.33 0.99 -0.66 1.98 -1 3 C-5.62 3 -10.24 3 -15 3 C-15 2.67 -15 2.34 -15 2 C-13.43883181 1.66048381 -11.87598662 1.32867456 -10.3125 1 C-9.44238281 0.814375 -8.57226562 0.62875 -7.67578125 0.4375 C-5.06287036 0.01027953 -2.64186962 -0.07616201 0 0 Z " fill="#F19B5D" transform="translate(90,22)"/>
<path d="M0 0 C3.48330216 0.64505596 6.09432866 1.98217268 9 4 C9 4.66 9 5.32 9 6 C7.35 6 5.7 6 4 6 C3.67 5.01 3.34 4.02 3 3 C2.01 2.67 1.02 2.34 0 2 C0 1.34 0 0.68 0 0 Z " fill="#FCF6EE" transform="translate(51,149)"/>
<path d="M0 0 C1.32 0.66 2.64 1.32 4 2 C4 4.64 4 7.28 4 10 C0.77686187 7.19275066 -0.64998321 5.31687378 -1 1 C-0.67 0.67 -0.34 0.34 0 0 Z " fill="#E5762C" transform="translate(35,120)"/>
<path d="M0 0 C1.41681634 0.31182069 2.83344651 0.62448737 4.25 0.9375 C5.43335937 1.19853516 5.43335937 1.19853516 6.640625 1.46484375 C8.76878703 1.947556 10.88532842 2.46163178 13 3 C13 3.66 13 4.32 13 5 C8.428721 4.45144652 4.32564205 3.58255197 0 2 C0 1.34 0 0.68 0 0 Z " fill="#CC7643" transform="translate(61,152)"/>
<path d="M0 0 C-1.875 5.75 -1.875 5.75 -3 8 C-3.66 8 -4.32 8 -5 8 C-5 8.66 -5 9.32 -5 10 C-5.66 10 -6.32 10 -7 10 C-4.54716981 0 -4.54716981 0 0 0 Z " fill="#F0A36C" transform="translate(153,115)"/>
<path d="M0 0 C0.99386719 0.02707031 1.98773438 0.05414063 3.01171875 0.08203125 C4.15060547 0.13423828 4.15060547 0.13423828 5.3125 0.1875 C1.73618771 2.57170819 -0.67060739 3.31892447 -4.875 3.25 C-6.7621875 3.2190625 -6.7621875 3.2190625 -8.6875 3.1875 C-6.10291354 -0.17334451 -4.11082043 -0.14508778 0 0 Z " fill="#EBA97C" transform="translate(106.6875,161.8125)"/>
<path d="M0 0 C0.71484375 1.765625 0.71484375 1.765625 1 4 C-0.43359375 5.921875 -0.43359375 5.921875 -2.4375 7.75 C-3.09621094 8.36359375 -3.75492188 8.9771875 -4.43359375 9.609375 C-5.20896484 10.29773438 -5.20896484 10.29773438 -6 11 C-6.66 10.67 -7.32 10.34 -8 10 C-5.33333333 6.66666667 -2.66666667 3.33333333 0 0 Z " fill="#E6A171" transform="translate(146,137)"/>
<path d="M0 0 C2.97 0.495 2.97 0.495 6 1 C6 1.66 6 2.32 6 3 C5.34 3 4.68 3 4 3 C4 3.99 4 4.98 4 6 C3.01 6 2.02 6 1 6 C0.67 4.02 0.34 2.04 0 0 Z " fill="#F0FCFC" transform="translate(52,125)"/>
<path d="M0 0 C0.66 0 1.32 0 2 0 C2.1953125 6.0546875 2.1953125 6.0546875 2 8 C1.34 8.66 0.68 9.32 0 10 C-0.66 9.34 -1.32 8.68 -2 8 C-1.63723355 5.17042171 -0.90305236 2.70915709 0 0 Z " fill="#FCF7EC" transform="translate(20,70)"/>
<path d="M0 0 C-0.33 1.32 -0.66 2.64 -1 4 C-4.3 3.34 -7.6 2.68 -11 2 C-11 1.34 -11 0.68 -11 0 C-7.18243176 -1.37432457 -3.92744671 -0.67975039 0 0 Z " fill="#FEF6EA" transform="translate(108,56)"/>
<path d="M0 0 C5.75 -0.125 5.75 -0.125 8 1 C7.67 1.99 7.34 2.98 7 4 C4.69 3.67 2.38 3.34 0 3 C0 2.01 0 1.02 0 0 Z " fill="#F96D1A" transform="translate(112,34)"/>
<path d="M0 0 C5.75 -0.125 5.75 -0.125 8 1 C8 1.66 8 2.32 8 3 C4.37 3.33 0.74 3.66 -3 4 C-2.67 3.34 -2.34 2.68 -2 2 C-1.34 2 -0.68 2 0 2 C0 1.34 0 0.68 0 0 Z " fill="#ED965A" transform="translate(76,154)"/>
<path d="M0 0 C3.95677402 1.67401978 6.84464213 4.13149285 10 7 C10 7.66 10 8.32 10 9 C6.55729549 7.46990911 3.81074178 5.5068778 1 3 C0.67 2.01 0.34 1.02 0 0 Z " fill="#FB9F61" transform="translate(41,135)"/>
<path d="M0 0 C0.33 0 0.66 0 1 0 C1 2.97 1 5.94 1 9 C-0.32 8.67 -1.64 8.34 -3 8 C-3.33 6.68 -3.66 5.36 -4 4 C-2.68 4 -1.36 4 0 4 C0 2.68 0 1.36 0 0 Z " fill="#DC7130" transform="translate(49,124)"/>
<path d="M0 0 C3 1 3 1 3.984375 2.9609375 C4.23703125 3.75757813 4.4896875 4.55421875 4.75 5.375 C5.14445313 6.56222656 5.14445313 6.56222656 5.546875 7.7734375 C6 10 6 10 5 13 C4.15615325 11.58957044 3.32530504 10.17135868 2.5 8.75 C2.0359375 7.96109375 1.571875 7.1721875 1.09375 6.359375 C0 4 0 4 0 0 Z " fill="#D29362" transform="translate(151,46)"/>
<path d="M0 0 C5.94 0.99 5.94 0.99 12 2 C12.33 3.32 12.66 4.64 13 6 C11.58208592 5.54554036 10.16571954 5.08625056 8.75 4.625 C7.96109375 4.36976562 7.1721875 4.11453125 6.359375 3.8515625 C4.13372042 3.04826333 2.09068328 2.10288338 0 1 C0 0.67 0 0.34 0 0 Z " fill="#E36E2A" transform="translate(114,17)"/>
<path d="M0 0 C-0.33 0.99 -0.66 1.98 -1 3 C-4.63 3.66 -8.26 4.32 -12 5 C-11 3 -11 3 -9.00390625 2.1484375 C-8.19824219 1.89320313 -7.39257812 1.63796875 -6.5625 1.375 C-5.75941406 1.11460937 -4.95632812 0.85421875 -4.12890625 0.5859375 C-2 0 -2 0 0 0 Z " fill="#F69E59" transform="translate(120,149)"/>
<path d="M0 0 C1.2077558 3.62326739 0.54311128 4.64146369 -1 8 C-2.65 8 -4.3 8 -6 8 C-4.625 5.5 -4.625 5.5 -3 3 C-2.34 3 -1.68 3 -1 3 C-0.67 2.01 -0.34 1.02 0 0 Z " fill="#E47328" transform="translate(150,136)"/>
<path d="M0 0 C1.65 0.33 3.3 0.66 5 1 C4.67 2.98 4.34 4.96 4 7 C1.69 7 -0.62 7 -3 7 C-3 6.67 -3 6.34 -3 6 C-1.35 6 0.3 6 2 6 C2 4.68 2 3.36 2 2 C1.34 2 0.68 2 0 2 C0 1.34 0 0.68 0 0 Z " fill="#FDF7F1" transform="translate(124,123)"/>
<path d="M0 0 C0.33 1.32 0.66 2.64 1 4 C-1.64 3.67 -4.28 3.34 -7 3 C-7.33 3.66 -7.66 4.32 -8 5 C-8 3.68 -8 2.36 -8 1 C-5.36 0.67 -2.72 0.34 0 0 Z " fill="#FFF4E2" transform="translate(105,121)"/>
<path d="M0 0 C1 3 1 3 -0.21484375 5.48046875 C-0.78332031 6.37378906 -1.35179687 7.26710938 -1.9375 8.1875 C-2.50339844 9.08855469 -3.06929687 9.98960938 -3.65234375 10.91796875 C-4.09707031 11.60503906 -4.54179687 12.29210937 -5 13 C-5.66 12.67 -6.32 12.34 -7 12 C-7 11.34 -7 10.68 -7 10 C-6.34 10 -5.68 10 -5 10 C-5 9.34 -5 8.68 -5 8 C-4.34 8 -3.68 8 -3 8 C-2.690625 7.05125 -2.38125 6.1025 -2.0625 5.125 C-1 2 -1 2 0 0 Z " fill="#CB6936" transform="translate(153,115)"/>
<path d="M0 0 C2.5 1.375 2.5 1.375 5 3 C5 3.66 5 4.32 5 5 C5.66 5 6.32 5 7 5 C7 5.66 7 6.32 7 7 C3.7 6.01 0.4 5.02 -3 4 C-2.01 3.67 -1.02 3.34 0 3 C0 2.01 0 1.02 0 0 Z " fill="#E47025" transform="translate(131,40)"/>
<path d="M0 0 C2.86697492 1.28519565 4.97607712 2.57129254 7 5 C7 5.66 7 6.32 7 7 C7.66 7 8.32 7 9 7 C9.33 8.32 9.66 9.64 10 11 C6.38737754 9.79579251 5.57513335 8.4978706 3.3125 5.5 C2.68988281 4.6853125 2.06726563 3.870625 1.42578125 3.03125 C0 1 0 1 0 0 Z " fill="#DD6F2F" transform="translate(144,36)"/>
<path d="M0 0 C2 1 4 2 6 3 C6 3.66 6 4.32 6 5 C7.32 5.66 8.64 6.32 10 7 C9.01 7.495 9.01 7.495 8 8 C6.66102417 7.04956626 5.32894573 6.08940853 4 5.125 C3.2575 4.59132812 2.515 4.05765625 1.75 3.5078125 C1.1725 3.01023438 0.595 2.51265625 0 2 C0 1.34 0 0.68 0 0 Z " fill="#D17535" transform="translate(45,141)"/>
<path d="M0 0 C0.66 0 1.32 0 2 0 C2 0.99 2 1.98 2 3 C2.66 3 3.32 3 4 3 C4.33 4.98 4.66 6.96 5 9 C4.01 9.495 4.01 9.495 3 10 C2.01 6.7 1.02 3.4 0 0 Z " fill="#D28556" transform="translate(24,110)"/>
<path d="M0 0 C0.33 0 0.66 0 1 0 C1 1.65 1 3.3 1 5 C1.66 5 2.32 5 3 5 C2.67 6.98 2.34 8.96 2 11 C1.67 9.68 1.34 8.36 1 7 C0.34 7 -0.32 7 -1 7 C-1.33 7.99 -1.66 8.98 -2 10 C-1.54177532 6.53058454 -1.10868317 3.32604951 0 0 Z " fill="#FBE1C6" transform="translate(21,63)"/>
<path d="M0 0 C2.97 0 5.94 0 9 0 C8.34 1.32 7.68 2.64 7 4 C6.401875 3.835 5.80375 3.67 5.1875 3.5 C2.88655664 2.8885876 2.88655664 2.8885876 0 3 C0 2.01 0 1.02 0 0 Z " fill="#D57639" transform="translate(96,59)"/>
<path d="M0 0 C0 0.33 0 0.66 0 1 C-1.98 1 -3.96 1 -6 1 C-6 1.66 -6 2.32 -6 3 C-8.64 3 -11.28 3 -14 3 C-13.67 2.34 -13.34 1.68 -13 1 C-8.71230214 -0.29930238 -4.43489655 -0.07516774 0 0 Z " fill="#EAA167" transform="translate(83,15)"/>
<path d="M0 0 C2.97 0 5.94 0 9 0 C9 1.65 9 3.3 9 5 C8.34 4.34 7.68 3.68 7 3 C4.67724823 2.59952556 2.34260643 2.2602896 0 2 C0 1.34 0 0.68 0 0 Z " fill="#FADFBA" transform="translate(121,121)"/>
<path d="M0 0 C2.97 0 5.94 0 9 0 C9 0.66 9 1.32 9 2 C6.36 2.66 3.72 3.32 1 4 C0.67 2.68 0.34 1.36 0 0 Z " fill="#D37740" transform="translate(50,59)"/>
<path d="M0 0 C2.33333823 2.12121657 3.9148886 4.01594365 5 7 C4.625 9.25 4.625 9.25 4 11 C0.85041169 7.57653445 0.43820891 4.55737263 0 0 Z " fill="#D4733B" transform="translate(150,57)"/>
<path d="M0 0 C1.98 0 3.96 0 6 0 C6.33 1.32 6.66 2.64 7 4 C4.69 3.67 2.38 3.34 0 3 C0 2.01 0 1.02 0 0 Z " fill="#EA985D" transform="translate(100,154)"/>
<path d="M0 0 C2.31 0.66 4.62 1.32 7 2 C7 2.33 7 2.66 7 3 C5.35 3 3.7 3 2 3 C1.67 3.66 1.34 4.32 1 5 C-1.475 4.01 -1.475 4.01 -4 3 C-2.68 2.67 -1.36 2.34 0 2 C0 1.34 0 0.68 0 0 Z " fill="#FDE7C5" transform="translate(60,153)"/>
<path d="M0 0 C2.64 0.33 5.28 0.66 8 1 C7.67 2.32 7.34 3.64 7 5 C3.535 3.02 3.535 3.02 0 1 C0 0.67 0 0.34 0 0 Z " fill="#E17B2F" transform="translate(56,145)"/>
<path d="M0 0 C1.125 3.75 1.125 3.75 0 6 C0.66 6.33 1.32 6.66 2 7 C-1.75 8.125 -1.75 8.125 -4 7 C-2.68 4.69 -1.36 2.38 0 0 Z " fill="#FCE2C7" transform="translate(151,122)"/>
<path d="M0 0 C2.09749995 2.35968744 2.96905704 3.54616994 3.1875 6.75 C3.125625 7.4925 3.06375 8.235 3 9 C2.34 9 1.68 9 1 9 C1 8.34 1 7.68 1 7 C0.34 7 -0.32 7 -1 7 C-0.67 4.69 -0.34 2.38 0 0 Z " fill="#E37936" transform="translate(27,71)"/>
<path d="M0 0 C0.66 0.33 1.32 0.66 2 1 C2.75 4.4375 2.75 4.4375 3 8 C2.34 8.66 1.68 9.32 1 10 C1 8.02 1 6.04 1 4 C0.34 4 -0.32 4 -1 4 C-0.67 2.68 -0.34 1.36 0 0 Z " fill="#CE824E" transform="translate(155,69)"/>
<path d="M0 0 C1.60080151 4.00200378 0.29279692 7.04556236 -1 11 C-1.66 11 -2.32 11 -3 11 C-2.53199289 6.94393835 -2.12046792 3.53411321 0 0 Z " fill="#F9A763" transform="translate(27,67)"/>
<path d="M0 0 C3.7952131 1.49097658 5.61042731 3.75700849 8 7 C4.21388773 6.45912682 2.44599233 4.88277668 0 2 C0 1.34 0 0.68 0 0 Z " fill="#F6A265" transform="translate(128,35)"/>
<path d="M0 0 C0.66 0 1.32 0 2 0 C3.625 2.5 3.625 2.5 5 5 C2.69 5 0.38 5 -2 5 C-1.34 3.35 -0.68 1.7 0 0 Z " fill="#EC782E" transform="translate(126,35)"/>
<path d="M0 0 C6.64615385 1.47692308 6.64615385 1.47692308 8.4375 4.125 C8.7159375 5.053125 8.7159375 5.053125 9 6 C5.9168649 4.80100302 2.93720508 3.52299523 0 2 C0 1.34 0 0.68 0 0 Z " fill="#E4A476" transform="translate(48,152)"/>
<path d="M0 0 C0.94875 0.350625 1.8975 0.70125 2.875 1.0625 C1.555 2.0525 0.235 3.0425 -1.125 4.0625 C-2.445 2.7425 -3.765 1.4225 -5.125 0.0625 C-3.125 -0.9375 -3.125 -0.9375 0 0 Z " fill="#F7E1CD" transform="translate(123.125,152.9375)"/>
<path d="M0 0 C3.77528304 1.25842768 4.10667045 2.62493429 6 6 C6.66 6.66 7.32 7.32 8 8 C7.01 8 6.02 8 5 8 C0 2.65116279 0 2.65116279 0 0 Z " fill="#D0773E" transform="translate(32,127)"/>
<path d="M0 0 C0.33 0 0.66 0 1 0 C1.25 5.625 1.25 5.625 -1 9 C-1.66 9 -2.32 9 -3 9 C-2.67 7.02 -2.34 5.04 -2 3 C-1.34 3 -0.68 3 0 3 C0 2.01 0 1.02 0 0 Z " fill="#F8F9E5" transform="translate(154,119)"/>
<path d="M0 0 C0.33 0 0.66 0 1 0 C1 2.64 1 5.28 1 8 C0.01 8 -0.98 8 -2 8 C-2.20086443 4.28400809 -2.1519437 3.22791555 0 0 Z " fill="#F76C15" transform="translate(133,56)"/>
<path d="M0 0 C5.37305699 -0.35233161 5.37305699 -0.35233161 8 0 C10 2 10 2 11 4 C7.1936543 3.32829194 3.64793184 2.27253436 0 1 C0 0.67 0 0.34 0 0 Z " fill="#EB7F38" transform="translate(64,150)"/>
<path d="M0 0 C0.99 0 1.98 0 3 0 C2.67 2.64 2.34 5.28 2 8 C0 6 0 6 -0.125 2.875 C-0.08375 1.92625 -0.0425 0.9775 0 0 Z " fill="#E4722F" transform="translate(12,96)"/>
<path d="M0 0 C-0.75 1.9375 -0.75 1.9375 -2 4 C-4.125 4.75 -4.125 4.75 -6 5 C-5.6875 3.0625 -5.6875 3.0625 -5 1 C-2 0 -2 0 0 0 Z " fill="#FBF7ED" transform="translate(141,141)"/>
<path d="M0 0 C2.31 0.33 4.62 0.66 7 1 C6.67 1.66 6.34 2.32 6 3 C4.35 3 2.7 3 1 3 C0.67 2.01 0.34 1.02 0 0 Z " fill="#E47830" transform="translate(47,138)"/>
<path d="M0 0 C1.32 0.33 2.64 0.66 4 1 C3.67 2.65 3.34 4.3 3 6 C1.5 4.6875 1.5 4.6875 0 3 C0 2.01 0 1.02 0 0 Z " fill="#F56B0E" transform="translate(127,136)"/>
<path d="M0 0 C0.66 0 1.32 0 2 0 C3.38938077 1.96147874 4.7260411 3.96166576 6 6 C5.67 6.66 5.34 7.32 5 8 C2.20127563 5.47211993 0.54226981 3.79588866 0 0 Z " fill="#F6A161" transform="translate(33,124)"/>
<path d="M0 0 C1.32 0 2.64 0 4 0 C3.34 1.98 2.68 3.96 2 6 C1.34 6 0.68 6 0 6 C0 4.02 0 2.04 0 0 Z " fill="#FA6D18" transform="translate(78,112)"/>
<path d="M0 0 C0.33 0 0.66 0 1 0 C1 1.65 1 3.3 1 5 C1.66 5 2.32 5 3 5 C2.67 7.31 2.34 9.62 2 12 C-0.60018816 8.09971775 -0.15085514 4.52565431 0 0 Z " fill="#F9A570" transform="translate(15,96)"/>
<path d="M0 0 C0.99 0.66 1.98 1.32 3 2 C2.67 3.65 2.34 5.3 2 7 C1.34 6.67 0.68 6.34 0 6 C0 5.34 0 4.68 0 4 C-0.99 3.67 -1.98 3.34 -3 3 C-2.01 2.01 -1.02 1.02 0 0 Z " fill="#FCE4CB" transform="translate(136,33)"/>
<path d="M0 0 C2.97 0.495 2.97 0.495 6 1 C6 2.32 6 3.64 6 5 C5.67 4.34 5.34 3.68 5 3 C2.47266765 2.34444881 2.47266765 2.34444881 0 2 C0 1.34 0 0.68 0 0 Z " fill="#D07844" transform="translate(110,24)"/>
<path d="M0 0 C0.33 0.99 0.66 1.98 1 3 C0.67 3.66 0.34 4.32 0 5 C-1.32 4.67 -2.64 4.34 -4 4 C-3.67 3.01 -3.34 2.02 -3 1 C-2.01 0.67 -1.02 0.34 0 0 Z " fill="#E18848" transform="translate(109,23)"/>
</svg>
