<?xml version="1.0" encoding="UTF-8"?>
<svg version="1.1" xmlns="http://www.w3.org/2000/svg" width="102" height="102">
<path d="M0 0 C12.61812425 8.14203202 20.54822583 19.7309754 23.875 34.375 C25.52016144 51.24159344 22.62904202 65.63433959 11.7578125 78.97265625 C3.17911405 88.29671702 -8.90475395 95.07899163 -21.76171875 95.7109375 C-38.58443431 96.01222998 -51.66402232 92.51236257 -64.3125 80.875 C-75.50149929 69.22786845 -78.75051139 55.03348831 -78.4375 39.33984375 C-77.81709114 25.62622286 -70.76963738 14.05110777 -61.04296875 4.70703125 C-43.30349178 -9.47030175 -19.63785149 -10.66747488 0 0 Z " fill="#EE9110" transform="translate(78.125,6.625)"/>
<path d="M0 0 C13 0 13 0 18 3 C19.67909909 6.35819817 19.39454899 9.70874877 18.3125 13.25 C16.44456132 15.74058491 15.0139879 16.21374229 12 17 C9.30794876 17.14983588 6.70074884 17.09155081 4 17 C4 20.3 4 23.6 4 27 C2.68 27 1.36 27 0 27 C0 18.09 0 9.18 0 0 Z " fill="#FDF5EA" transform="translate(55,38)"/>
<path d="M0 0 C0.99 0 1.98 0 3 0 C3 3.63 3 7.26 3 11 C7.29 11 11.58 11 16 11 C16 7.37 16 3.74 16 0 C17.32 0 18.64 0 20 0 C20 8.91 20 17.82 20 27 C18.68 27 17.36 27 16 27 C16 22.71 16 18.42 16 14 C11.71 14 7.42 14 3 14 C3 18.29 3 22.58 3 27 C2.01 27 1.02 27 0 27 C0 18.09 0 9.18 0 0 Z " fill="#FEFCF8" transform="translate(29,38)"/>
<path d="M0 0 C7.38804781 -0.36334661 7.38804781 -0.36334661 10 1.1875 C11.38323858 3.69461993 11.49315303 5.1819827 11 8 C9.4375 9.8125 9.4375 9.8125 7 11 C3.25 11.1875 3.25 11.1875 0 11 C0 7.37 0 3.74 0 0 Z " fill="#EF981E" transform="translate(59,41)"/>
</svg>
